<?xml version="1.0" encoding="iso-8859-1"?>
<!-- Generator: Adobe Illustrator 16.0.0, SVG Export Plug-In . SVG Version: 6.00 Build 0)  -->
<!DOCTYPE svg PUBLIC "-//W3C//DTD SVG 1.1//EN" "http://www.w3.org/Graphics/SVG/1.1/DTD/svg11.dtd">
<svg version="1.1" id="Capa_1" xmlns="http://www.w3.org/2000/svg" xmlns:xlink="http://www.w3.org/1999/xlink" x="0px" y="0px"
	 width="376.818px" height="376.818px" viewBox="0 0 376.818 376.818" style="enable-background:new 0 0 376.818 376.818;"
	 xml:space="preserve">
<g>
	<g id="_x32_38._Unlocked">
		<g>
			<path d="M345.416,149.15H188.409v-47.095c0-52.032-42.18-94.205-94.205-94.205C42.174,7.85,0,50.022,0,102.055v62.802
				c0,8.668,7.035,15.701,15.701,15.701c8.668,0,15.701-7.033,15.701-15.701v-62.802c0-34.69,28.112-62.803,62.802-62.803
				c34.682,0,62.804,28.112,62.804,62.803v47.095c-17.342,0-31.402,14.06-31.402,31.4v157.016c0,17.344,14.061,31.402,31.402,31.402
				h188.407c17.344,0,31.402-14.059,31.402-31.402V180.55C376.818,163.21,362.76,149.15,345.416,149.15z M345.416,337.565H157.009
				V180.558h188.407V337.565z M235.513,270.408v20.054c0,8.664,7.037,15.693,15.701,15.693c8.659,0,15.701-7.029,15.701-15.693
				v-20.054c9.337-5.441,15.7-15.456,15.7-27.046c0-17.348-14.062-31.41-31.401-31.41c-17.345,0-31.402,14.062-31.402,31.41
				C219.812,254.952,226.175,264.967,235.513,270.408z"/>
		</g>
	</g>
</g>
<g>
</g>
<g>
</g>
<g>
</g>
<g>
</g>
<g>
</g>
<g>
</g>
<g>
</g>
<g>
</g>
<g>
</g>
<g>
</g>
<g>
</g>
<g>
</g>
<g>
</g>
<g>
</g>
<g>
</g>
</svg>
