<?xml version="1.0" encoding="iso-8859-1"?>
<!-- Generator: Adobe Illustrator 19.0.0, SVG Export Plug-In . SVG Version: 6.00 Build 0)  -->
<svg version="1.1" id="Capa_1" xmlns="http://www.w3.org/2000/svg" xmlns:xlink="http://www.w3.org/1999/xlink" x="0px" y="0px"
	 viewBox="0 0 512 512" style="enable-background:new 0 0 512 512;" xml:space="preserve">
<path style="fill:#F9F9F9;" d="M466,75H46c-8.284,0-15,6.716-15,15v332c0,8.284,6.716,15,15,15h420c8.284,0,15-6.716,15-15V90
	C481,81.716,474.284,75,466,75z"/>
<path style="fill:#DFE4EA;" d="M466,75H256v362h210c8.284,0,15-6.716,15-15V90C481,81.716,474.284,75,466,75z"/>
<path style="fill:#7FECA0;" d="M82.699,227.602c-3.83-7.346-0.979-16.406,6.368-20.235l130.362-67.952
	c5.188-2.705,11.475-2.146,16.105,1.432l79.402,61.356l92.73-61.959c6.889-4.602,16.203-2.75,20.806,4.139s2.75,16.203-4.139,20.806
	L322.634,233.14c-5.36,3.581-12.406,3.338-17.505-0.603l-80.344-62.083L102.933,233.97C95.54,237.823,86.504,234.901,82.699,227.602
	z"/>
<path style="fill:#FD7F56;" d="M426,487H86c-8.284,0-15-6.716-15-15s6.716-15,15-15h340c8.284,0,15,6.716,15,15S434.284,487,426,487
	z"/>
<path style="fill:#72A3FC;" d="M423.071,209.487c-4.882-2.61-10.803-2.318-15.404,0.756l-92.73,61.959l-79.402-61.356
	c-4.631-3.579-10.918-4.138-16.105-1.432L89.066,277.367c-4.958,2.584-8.066,7.71-8.066,13.301V382c0,8.284,6.716,15,15,15h320
	c8.284,0,15-6.716,15-15V222.716C431,217.181,427.952,212.096,423.071,209.487z"/>
<path style="fill:#FD7F56;" d="M497,25H15C6.716,25,0,31.716,0,40v50c0,8.284,6.716,15,15,15h482c8.284,0,15-6.716,15-15V40
	C512,31.716,505.284,25,497,25z"/>
<path style="fill:#3AD475;" d="M428.472,144.382c-4.603-6.888-13.917-8.741-20.806-4.139l-92.73,61.959L256,156.661v37.913
	l49.129,37.963c5.099,3.941,12.146,4.184,17.505,0.603l101.699-67.952C431.222,160.585,433.075,151.271,428.472,144.382z"/>
<path style="fill:#FC644D;" d="M426,457H256v30h170c8.284,0,15-6.716,15-15S434.284,457,426,457z"/>
<path style="fill:#2892FC;" d="M423.071,209.487c-4.882-2.61-10.803-2.318-15.404,0.756l-92.73,61.959L256,226.661V397h160
	c8.284,0,15-6.716,15-15V222.716C431,217.181,427.952,212.096,423.071,209.487z"/>
<path style="fill:#FC644D;" d="M497,25H256v80h241c8.284,0,15-6.716,15-15V40C512,31.716,505.284,25,497,25z"/>
<g>
</g>
<g>
</g>
<g>
</g>
<g>
</g>
<g>
</g>
<g>
</g>
<g>
</g>
<g>
</g>
<g>
</g>
<g>
</g>
<g>
</g>
<g>
</g>
<g>
</g>
<g>
</g>
<g>
</g>
</svg>
