<?xml version="1.0" encoding="iso-8859-1"?>
<!-- Generator: Adobe Illustrator 19.0.0, SVG Export Plug-In . SVG Version: 6.00 Build 0)  -->
<svg version="1.1" id="Capa_1" xmlns="http://www.w3.org/2000/svg" xmlns:xlink="http://www.w3.org/1999/xlink" x="0px" y="0px"
	 viewBox="0 0 512 512" style="enable-background:new 0 0 512 512;" xml:space="preserve">
<path style="fill:#59C9FF;" d="M446,512H66c-8.284,0-15-6.716-15-15V15c0-8.284,6.716-15,15-15h380c8.284,0,15,6.716,15,15v482
	C461,505.284,454.284,512,446,512z"/>
<path style="fill:#4BA9EF;" d="M446,0H256v512h190c8.284,0,15-6.716,15-15V15C461,6.716,454.284,0,446,0z"/>
<g>
	<path style="fill:#6D737F;" d="M366,171H146c-8.284,0-15-6.716-15-15s6.716-15,15-15h220c8.284,0,15,6.716,15,15
		S374.284,171,366,171z"/>
	<path style="fill:#6D737F;" d="M296,271H146c-8.284,0-15-6.716-15-15s6.716-15,15-15h150c8.284,0,15,6.716,15,15
		S304.284,271,296,271z"/>
	<path style="fill:#6D737F;" d="M366,371H146c-8.284,0-15-6.716-15-15s6.716-15,15-15h220c8.284,0,15,6.716,15,15
		S374.284,371,366,371z"/>
</g>
<g>
	<path style="fill:#5E5F69;" d="M366,141H256v30h110c8.284,0,15-6.716,15-15S374.284,141,366,141z"/>
	<path style="fill:#5E5F69;" d="M296,241h-40v30h40c8.284,0,15-6.716,15-15S304.284,241,296,241z"/>
	<path style="fill:#5E5F69;" d="M366,341H256v30h110c8.284,0,15-6.716,15-15S374.284,341,366,341z"/>
</g>
<g>
</g>
<g>
</g>
<g>
</g>
<g>
</g>
<g>
</g>
<g>
</g>
<g>
</g>
<g>
</g>
<g>
</g>
<g>
</g>
<g>
</g>
<g>
</g>
<g>
</g>
<g>
</g>
<g>
</g>
</svg>
