<?xml version="1.0" encoding="iso-8859-1"?>
<!-- Generator: Adobe Illustrator 19.0.0, SVG Export Plug-In . SVG Version: 6.00 Build 0)  -->
<svg version="1.1" id="Capa_1" xmlns="http://www.w3.org/2000/svg" xmlns:xlink="http://www.w3.org/1999/xlink" x="0px" y="0px"
	 viewBox="0 0 512 512" style="enable-background:new 0 0 512 512;" xml:space="preserve">
<path style="fill:#CE7937;" d="M451,346c0,57.9-47.1,105-105,105h-30c-24.6,0-46.199-12.001-60-30.601
	C242.199,438.999,220.6,451,196,451h-30c-57.9,0-105-47.1-105-105c0-6,3.6-11.4,9.3-13.801C76,329.8,82.301,331,86.499,335.5
	c11.4,11.1,29.401,11.699,41.1,0.899L145.9,320.2c18.3-16.5,44.7-22.8,68.099-17.1H298c23.399-5.7,49.799,0.601,68.099,17.1
	l18.301,16.199c11.699,10.8,29.7,10.201,41.1-0.899c4.199-4.501,10.499-5.7,16.199-3.301C447.4,334.6,451,340,451,346z"/>
<path style="fill:#404040;" d="M497,151h-17.076C472.621,100.188,428.798,61,376,61c-57.891,0-105,47.109-105,105
	s47.109,105,105,105c52.798,0,96.621-39.188,103.924-90H497c8.291,0,15-6.709,15-15S505.291,151,497,151z"/>
<path style="fill:#606060;" d="M136,61c-52.798,0-96.621,39.188-103.924,90H15c-8.291,0-15,6.709-15,15s6.709,15,15,15h17.076
	c7.303,50.812,51.125,90,103.924,90c57.891,0,105-47.109,105-105S193.891,61,136,61z"/>
<path style="fill:#C4C8F6;" d="M376,91c-41.353,0-75,33.647-75,75s33.647,75,75,75s75-33.647,75-75S417.353,91,376,91z"/>
<path style="fill:#E0E3FA;" d="M136,91c-41.353,0-75,33.647-75,75s33.647,75,75,75s75-33.647,75-75S177.353,91,136,91z"/>
<path style="fill:#BF6429;" d="M451,346c0,57.9-47.1,105-105,105h-30c-24.6,0-46.199-12.001-60-30.601V303.1h42.001
	c23.399-5.7,49.799,0.601,68.099,17.1l18.301,16.199c11.699,10.8,29.7,10.201,41.1-0.899c4.199-4.501,10.499-5.7,16.199-3.301
	C447.4,334.6,451,340,451,346z"/>
<path style="fill:#FDA732;" d="M320.799,284.5l-15-91.5c-4.198-24.299-25.199-42-49.799-42s-45.601,17.701-49.799,42.001l-15,91.5
	c-3.301,18.9,2.098,38.399,14.7,53.099C218.2,352.599,236.499,361,256,361s37.8-8.401,50.099-23.401
	C318.701,322.899,324.101,303.401,320.799,284.5z"/>
<path style="fill:#FD9823;" d="M306.099,337.599C293.8,352.599,275.501,361,256,361V151c24.6,0,45.601,17.701,49.799,42.001l15,91.5
	C324.101,303.401,318.701,322.899,306.099,337.599z"/>
<g>
</g>
<g>
</g>
<g>
</g>
<g>
</g>
<g>
</g>
<g>
</g>
<g>
</g>
<g>
</g>
<g>
</g>
<g>
</g>
<g>
</g>
<g>
</g>
<g>
</g>
<g>
</g>
<g>
</g>
</svg>
