<?xml version="1.0" encoding="iso-8859-1"?>
<!-- Generator: Adobe Illustrator 19.0.0, SVG Export Plug-In . SVG Version: 6.00 Build 0)  -->
<svg version="1.1" id="Layer_1" xmlns="http://www.w3.org/2000/svg" xmlns:xlink="http://www.w3.org/1999/xlink" x="0px" y="0px"
	 viewBox="0 0 512.002 512.002" style="enable-background:new 0 0 512.002 512.002;" xml:space="preserve">
<path style="fill:#57575C;" d="M395.636,93.092h-46.545h-23.273V23.274c0-12.853-10.42-23.273-23.273-23.273h-93.091h-93.091
	c-12.853,0-23.273,10.42-23.273,23.273v69.818H69.818H23.273C10.42,93.092,0,103.512,0,116.364s10.42,23.273,23.273,23.273h23.273
	v287.03c0,12.853,10.42,23.273,23.273,23.273h139.636v-17.02V265.279v-0.017V139.637H256h46.545h23.273h46.545h23.273
	c12.853,0,23.273-10.42,23.273-23.273S408.489,93.092,395.636,93.092z M279.273,93.092h-69.818h-69.818V46.546h69.818h69.818V93.092
	z"/>
<path style="fill:#A9A8AE;" d="M395.636,93.092h-46.545h-23.273V23.274c0-12.853-10.42-23.273-23.273-23.273h-93.091h-93.091
	c-12.853,0-23.273,10.42-23.273,23.273v69.818H69.818H23.273C10.42,93.092,0,103.512,0,116.364s10.42,23.273,23.273,23.273h23.273
	v287.03c0,12.853,10.42,23.273,23.273,23.273h139.636v-17.02V265.279c3.897-6.468,8.229-12.646,12.958-18.491
	c0.064-0.076,0.126-0.152,0.188-0.228c0.729-0.897,1.466-1.787,2.214-2.669c0.107-0.127,0.219-0.253,0.326-0.382
	c0.709-0.83,1.424-1.652,2.149-2.468c0.135-0.15,0.27-0.301,0.405-0.451c0.707-0.791,1.423-1.576,2.147-2.354
	c0.147-0.158,0.293-0.315,0.441-0.472c0.72-0.768,1.449-1.53,2.183-2.284c0.088-0.092,0.175-0.185,0.264-0.276
	c0.048-0.05,0.099-0.098,0.149-0.147c2.256-2.298,4.579-4.526,6.965-6.689c0.278-0.251,0.555-0.503,0.835-0.752
	c1.033-0.922,2.076-1.834,3.131-2.731c0.205-0.174,0.406-0.348,0.613-0.52c1.058-0.889,2.13-1.761,3.209-2.624
	c0.199-0.158,0.389-0.323,0.588-0.479c0.245-0.194,0.498-0.379,0.745-0.571c0.798-0.622,1.598-1.237,2.406-1.845
	c0.316-0.237,0.628-0.478,0.945-0.712c1.178-0.872,2.366-1.728,3.568-2.569c0.04-0.029,0.081-0.059,0.119-0.087
	c0.068-0.048,0.14-0.092,0.209-0.14c1.767-1.23,3.555-2.43,5.37-3.592c0.012-0.006,0.023-0.014,0.034-0.022
	c1.789-1.143,3.607-2.251,5.444-3.326c0.13-0.076,0.258-0.155,0.388-0.23c1.733-1.008,3.491-1.978,5.264-2.925
	c0.27-0.144,0.537-0.292,0.807-0.433c1.694-0.891,3.406-1.747,5.134-2.579c0.211-0.101,0.414-0.213,0.624-0.313
	c0.163-0.078,0.332-0.147,0.495-0.225c1.482-0.7,2.974-1.376,4.481-2.032c0.424-0.185,0.85-0.363,1.275-0.545
	c1.462-0.622,2.932-1.229,4.416-1.808c0.264-0.104,0.527-0.206,0.793-0.307c1.505-0.58,3.022-1.131,4.549-1.666
	c0.417-0.146,0.83-0.295,1.247-0.436c1.59-0.545,3.195-1.063,4.807-1.559c0.397-0.121,0.797-0.239,1.196-0.357
	c1.648-0.492,3.303-0.967,4.971-1.407c0.121-0.033,0.242-0.065,0.363-0.096c1.704-0.445,3.416-0.855,5.14-1.246
	c0.357-0.082,0.717-0.164,1.077-0.244c1.722-0.38,3.457-0.731,5.199-1.055c0.346-0.064,0.692-0.124,1.039-0.186
	c1.825-0.327,3.654-0.633,5.5-0.898c7.602-1.092,15.371-1.669,23.273-1.669s15.67,0.577,23.273,1.669v-48.215h23.273
	c12.853,0,23.273-10.42,23.273-23.273C418.909,103.512,408.489,93.092,395.636,93.092z M139.636,93.092V46.546h69.818h69.818v46.545
	h-69.818H139.636z"/>
<path style="fill:#D8143A;" d="M372.364,187.852c-7.602-1.092-15.371-1.669-23.273-1.669c-7.902,0-15.67,0.577-23.273,1.669
	c-1.845,0.265-3.676,0.571-5.5,0.898c-0.348,0.062-0.694,0.123-1.04,0.186c-1.742,0.324-3.475,0.675-5.199,1.055
	c-0.36,0.079-0.72,0.161-1.077,0.244c-1.722,0.391-3.437,0.802-5.14,1.246c-0.121,0.031-0.242,0.064-0.363,0.096
	c-1.668,0.441-3.325,0.915-4.971,1.407c-0.399,0.119-0.799,0.236-1.196,0.357c-1.612,0.495-3.215,1.015-4.807,1.559
	c-0.417,0.143-0.83,0.292-1.247,0.436c-1.525,0.535-3.044,1.088-4.549,1.666c-0.265,0.101-0.529,0.205-0.793,0.307
	c-1.483,0.58-2.953,1.187-4.416,1.808c-0.425,0.182-0.852,0.36-1.275,0.545c-1.507,0.656-2.999,1.333-4.481,2.032
	c-0.163,0.078-0.332,0.147-0.495,0.225c-0.211,0.101-0.414,0.213-0.624,0.313c-1.727,0.832-3.44,1.688-5.134,2.579
	c-0.27,0.143-0.537,0.289-0.807,0.433c-1.773,0.945-3.53,1.916-5.264,2.925c-0.13,0.076-0.258,0.155-0.388,0.23
	c-1.837,1.075-3.654,2.181-5.444,3.326c-0.012,0.006-0.023,0.014-0.034,0.022c-1.815,1.162-3.603,2.361-5.37,3.592
	c-0.07,0.048-0.141,0.092-0.209,0.14c-0.039,0.028-0.079,0.057-0.119,0.087c-1.201,0.841-2.391,1.697-3.568,2.569
	c-0.316,0.234-0.628,0.475-0.945,0.712c-0.808,0.608-1.609,1.223-2.406,1.845c-0.247,0.192-0.5,0.377-0.745,0.571
	c-0.199,0.157-0.389,0.323-0.588,0.479c-1.078,0.863-2.152,1.736-3.209,2.624c-0.206,0.172-0.408,0.346-0.613,0.52
	c-1.055,0.897-2.098,1.809-3.131,2.731c-0.279,0.25-0.557,0.501-0.835,0.752c-2.386,2.163-4.709,4.391-6.965,6.689
	c-0.048,0.05-0.099,0.098-0.149,0.147c-0.088,0.092-0.175,0.185-0.264,0.276c-0.735,0.754-1.463,1.516-2.183,2.284
	c-0.147,0.157-0.293,0.315-0.441,0.472c-0.725,0.777-1.44,1.562-2.147,2.354c-0.135,0.15-0.27,0.301-0.405,0.451
	c-0.725,0.816-1.44,1.638-2.149,2.468c-0.107,0.127-0.219,0.254-0.326,0.382c-0.746,0.881-1.485,1.772-2.214,2.669
	c-0.062,0.076-0.124,0.152-0.188,0.228c-4.729,5.845-9.061,12.023-12.958,18.491c-0.079,0.132-0.163,0.261-0.242,0.393
	c-0.043,0.074-0.088,0.151-0.132,0.225c-0.597,1.001-1.184,2.009-1.761,3.024c-0.096,0.169-0.191,0.341-0.287,0.512
	c-0.521,0.925-1.033,1.853-1.536,2.788c-0.121,0.227-0.24,0.453-0.362,0.681c-0.47,0.884-0.934,1.773-1.387,2.669
	c-0.135,0.264-0.267,0.528-0.4,0.793c-0.434,0.867-0.861,1.739-1.282,2.614c-0.135,0.284-0.272,0.568-0.406,0.853
	c-0.41,0.867-0.808,1.739-1.202,2.614c-0.132,0.292-0.264,0.583-0.394,0.875c-0.391,0.884-0.774,1.775-1.151,2.667
	c-0.118,0.282-0.239,0.565-0.357,0.847c-0.383,0.926-0.757,1.857-1.125,2.791c-0.099,0.253-0.203,0.504-0.299,0.757
	c-0.397,1.022-0.782,2.05-1.157,3.081c-0.061,0.164-0.123,0.327-0.182,0.492c-1.314,3.641-2.501,7.34-3.558,11.095
	c-0.064,0.228-0.124,0.459-0.188,0.689c-0.275,0.996-0.545,1.994-0.801,2.996c-0.098,0.379-0.188,0.76-0.282,1.139
	c-0.213,0.861-0.424,1.722-0.624,2.589c-0.102,0.445-0.199,0.892-0.296,1.339c-0.178,0.804-0.355,1.609-0.521,2.419
	c-0.099,0.487-0.195,0.977-0.292,1.466c-0.152,0.774-0.299,1.548-0.441,2.326c-0.093,0.515-0.183,1.032-0.272,1.548
	c-0.13,0.757-0.254,1.517-0.372,2.278c-0.084,0.532-0.163,1.067-0.242,1.601c-0.109,0.751-0.214,1.505-0.312,2.259
	c-0.073,0.545-0.144,1.089-0.211,1.635c-0.092,0.756-0.174,1.514-0.256,2.271c-0.059,0.545-0.118,1.089-0.171,1.635
	c-0.074,0.771-0.141,1.547-0.205,2.323c-0.043,0.537-0.092,1.072-0.13,1.609c-0.057,0.807-0.105,1.615-0.152,2.425
	c-0.031,0.509-0.064,1.016-0.09,1.525c-0.043,0.897-0.071,1.795-0.101,2.695c-0.012,0.425-0.033,0.85-0.043,1.275
	c-0.026,1.331-0.045,2.662-0.045,3.998c0,19.034,3.291,37.309,9.318,54.303c2.861,8.065,6.327,15.846,10.367,23.273
	c1.15,2.113,2.349,4.197,3.589,6.253c3.573,5.928,7.509,11.613,11.785,17.02c29.86,37.775,76.072,62.061,127.851,62.061
	c89.828,0,162.909-73.081,162.909-162.909C512,267.164,451.205,199.18,372.364,187.852z"/>
<path style="fill:#77757F;" d="M205.867,426.667c-4.04-7.427-7.506-15.208-10.367-23.273c-6.028-16.994-9.318-35.269-9.318-54.303
	c0-1.336,0.019-2.667,0.05-3.997c0.011-0.425,0.031-0.85,0.043-1.275c0.031-0.9,0.057-1.798,0.101-2.695
	c0.026-0.51,0.059-1.018,0.09-1.525c0.045-0.81,0.095-1.618,0.152-2.425c0.039-0.538,0.087-1.074,0.13-1.61
	c0.064-0.776,0.13-1.55,0.205-2.323c0.053-0.546,0.112-1.091,0.171-1.635c0.082-0.759,0.164-1.516,0.256-2.271
	c0.067-0.546,0.138-1.091,0.211-1.635c0.098-0.754,0.203-1.508,0.312-2.259c0.079-0.535,0.16-1.069,0.242-1.601
	c0.118-0.762,0.242-1.52,0.372-2.278c0.088-0.517,0.178-1.033,0.272-1.548c0.141-0.777,0.29-1.552,0.441-2.326
	c0.096-0.489,0.191-0.979,0.292-1.466c0.168-0.808,0.343-1.614,0.521-2.419c0.099-0.447,0.194-0.894,0.296-1.339
	c0.2-0.866,0.413-1.728,0.624-2.589c0.095-0.38,0.185-0.76,0.282-1.139c0.256-1.002,0.526-2.001,0.801-2.996
	c0.064-0.23,0.124-0.461,0.188-0.689c1.057-3.755,2.242-7.455,3.558-11.095c0.059-0.164,0.121-0.327,0.182-0.492
	c0.375-1.032,0.76-2.059,1.157-3.081c0.098-0.253,0.2-0.504,0.299-0.757c0.366-0.934,0.742-1.865,1.125-2.791
	c0.118-0.284,0.239-0.565,0.357-0.847c0.377-0.892,0.76-1.781,1.151-2.667c0.13-0.293,0.262-0.583,0.394-0.875
	c0.394-0.875,0.794-1.747,1.202-2.614c0.135-0.285,0.272-0.569,0.406-0.853c0.42-0.875,0.847-1.747,1.282-2.614
	c0.133-0.264,0.265-0.529,0.4-0.793c0.453-0.895,0.917-1.783,1.387-2.669c0.121-0.227,0.24-0.455,0.362-0.681
	c0.503-0.936,1.015-1.865,1.536-2.788c0.096-0.171,0.191-0.341,0.285-0.512c0.577-1.015,1.164-2.023,1.761-3.024
	c0.043-0.074,0.088-0.151,0.132-0.225c0.079-0.132,0.163-0.262,0.242-0.393v-0.017V139.637h46.545h46.545h23.273h46.545h23.273
	c12.853,0,23.273-10.42,23.273-23.273s-10.42-23.273-23.273-23.273h-46.545h-23.273V23.274c0-12.853-10.42-23.273-23.273-23.273
	H116.364c-12.853,0-23.273,10.42-23.273,23.273v69.818H69.818H23.273C10.42,93.092,0,103.512,0,116.364s10.42,23.273,23.273,23.273
	h23.273v287.03c0,12.853,10.42,23.273,23.273,23.273h139.636v-17.02C208.215,430.864,207.017,428.781,205.867,426.667z
	 M139.636,46.546h139.636v46.545H139.636V46.546z"/>
<path style="fill:#A9A8AE;" d="M209.455,449.94h11.785c-4.276-5.407-8.212-11.092-11.785-17.02V449.94z"/>
<path style="fill:#B4002B;" d="M195.79,293.954c-1.316,3.64-2.501,7.34-3.558,11.095
	C193.289,301.294,194.478,297.595,195.79,293.954z"/>
<path style="fill:#87868D;" d="M209.081,265.896c-0.597,1.001-1.184,2.009-1.761,3.024c-0.096,0.169-0.191,0.341-0.287,0.512
	c-0.521,0.925-1.033,1.853-1.536,2.788c-0.121,0.227-0.24,0.453-0.361,0.681c-0.47,0.884-0.934,1.773-1.387,2.669
	c-0.135,0.264-0.267,0.528-0.4,0.793c-0.434,0.867-0.861,1.739-1.282,2.614c-0.135,0.284-0.272,0.568-0.406,0.853
	c-0.41,0.867-0.808,1.739-1.202,2.614c-0.132,0.292-0.264,0.583-0.394,0.875c-0.391,0.884-0.774,1.775-1.151,2.667
	c-0.118,0.282-0.239,0.565-0.357,0.847c-0.383,0.926-0.757,1.857-1.125,2.791c-0.099,0.253-0.203,0.504-0.299,0.757
	c-0.397,1.022-0.782,2.05-1.157,3.081c-0.061,0.164-0.123,0.327-0.182,0.492c-1.316,3.64-2.501,7.34-3.558,11.095
	c-0.064,0.228-0.124,0.459-0.188,0.689c-0.275,0.996-0.545,1.994-0.801,2.996c-0.098,0.379-0.188,0.76-0.282,1.139
	c-0.213,0.861-0.424,1.722-0.624,2.589c-0.102,0.445-0.199,0.892-0.296,1.339c-0.178,0.804-0.355,1.609-0.521,2.419
	c-0.099,0.487-0.195,0.977-0.292,1.466c-0.152,0.774-0.299,1.548-0.441,2.326c-0.093,0.515-0.183,1.032-0.272,1.548
	c-0.13,0.757-0.254,1.517-0.372,2.278c-0.084,0.532-0.163,1.067-0.242,1.601c-0.109,0.751-0.214,1.505-0.312,2.259
	c-0.073,0.545-0.144,1.089-0.211,1.635c-0.092,0.756-0.174,1.514-0.256,2.271c-0.059,0.545-0.118,1.089-0.171,1.635
	c-0.074,0.771-0.141,1.547-0.205,2.323c-0.043,0.537-0.092,1.072-0.13,1.609c-0.057,0.807-0.105,1.615-0.152,2.425
	c-0.031,0.509-0.064,1.016-0.09,1.525c-0.043,0.897-0.071,1.795-0.101,2.695c-0.012,0.425-0.033,0.85-0.043,1.275
	c-0.033,1.331-0.051,2.662-0.051,3.998c0,19.034,3.291,37.309,9.318,54.303c2.861,8.065,6.327,15.846,10.367,23.273
	c1.15,2.113,2.349,4.197,3.589,6.253V265.279c-0.079,0.132-0.163,0.261-0.242,0.393
	C209.168,265.747,209.124,265.822,209.081,265.896z"/>
<path style="fill:#57575C;" d="M139.636,93.092V46.546h69.818V0.001h-93.091c-12.853,0-23.273,10.42-23.273,23.273v69.818H69.818
	H23.273C10.42,93.092,0,103.512,0,116.364s10.42,23.273,23.273,23.273h23.273v287.03c0,12.853,10.42,23.273,23.273,23.273h139.636
	v-17.02c-1.24-2.056-2.437-4.139-3.589-6.253c-4.04-7.427-7.506-15.208-10.367-23.273c-6.028-16.994-9.318-35.269-9.318-54.303
	c0-1.336,0.019-2.667,0.05-3.997c0.011-0.425,0.033-0.85,0.043-1.275c0.031-0.9,0.057-1.798,0.101-2.695
	c0.026-0.51,0.059-1.018,0.09-1.525c0.045-0.81,0.095-1.618,0.152-2.425c0.039-0.538,0.087-1.074,0.13-1.609
	c0.064-0.776,0.13-1.55,0.205-2.323c0.053-0.546,0.112-1.091,0.171-1.635c0.082-0.759,0.164-1.516,0.256-2.271
	c0.067-0.546,0.138-1.091,0.211-1.635c0.098-0.754,0.203-1.508,0.312-2.259c0.079-0.535,0.16-1.069,0.242-1.601
	c0.118-0.762,0.242-1.52,0.372-2.278c0.088-0.517,0.178-1.033,0.272-1.548c0.141-0.777,0.29-1.552,0.441-2.326
	c0.096-0.489,0.191-0.979,0.292-1.466c0.166-0.808,0.343-1.614,0.521-2.419c0.098-0.447,0.194-0.894,0.296-1.339
	c0.2-0.866,0.413-1.728,0.624-2.589c0.095-0.38,0.185-0.76,0.282-1.139c0.256-1.002,0.526-2.001,0.801-2.996
	c0.064-0.23,0.124-0.461,0.188-0.689c1.057-3.755,2.242-7.455,3.558-11.095c0.059-0.164,0.121-0.327,0.182-0.492
	c0.375-1.032,0.76-2.059,1.157-3.081c0.098-0.253,0.2-0.504,0.299-0.757c0.366-0.934,0.742-1.865,1.125-2.791
	c0.118-0.284,0.239-0.565,0.357-0.847c0.377-0.892,0.76-1.781,1.151-2.667c0.13-0.292,0.262-0.583,0.394-0.875
	c0.394-0.875,0.794-1.747,1.202-2.614c0.135-0.285,0.272-0.569,0.406-0.853c0.42-0.877,0.847-1.747,1.282-2.614
	c0.133-0.264,0.265-0.529,0.4-0.793c0.453-0.895,0.917-1.783,1.387-2.669c0.121-0.227,0.24-0.455,0.361-0.681
	c0.503-0.936,1.015-1.865,1.536-2.788c0.096-0.171,0.191-0.341,0.287-0.512c0.577-1.015,1.164-2.023,1.761-3.024
	c0.043-0.074,0.088-0.15,0.132-0.225c0.079-0.132,0.163-0.262,0.242-0.393v-0.017V139.637V93.092H139.636z"/>
<path style="fill:#460016;" d="M299.723,299.724c-9.089,9.089-9.089,23.823,0,32.912l16.455,16.455l-16.455,16.455
	c-9.089,9.089-9.089,23.824,0,32.912c4.544,4.544,10.501,6.817,16.455,6.817c5.956,0,11.913-2.271,16.457-6.817l16.455-16.455
	l16.455,16.455c2.029,2.029,4.35,3.581,6.817,4.703c3.058,1.392,6.343,2.113,9.64,2.113c5.956,0,11.913-2.271,16.455-6.817
	c9.089-9.089,9.089-23.823,0-32.912l-16.455-16.454l16.455-16.455c9.089-9.089,9.089-23.823,0-32.912
	c-7.059-7.059-17.515-8.609-26.095-4.703c-2.467,1.123-4.788,2.673-6.817,4.703l-16.455,16.455l-16.455-16.455
	C323.547,290.635,308.81,290.635,299.723,299.724z"/>
<path style="fill:#B4002B;" d="M349.091,382.004l-16.455,16.455c-4.544,4.544-10.501,6.817-16.457,6.817
	c-5.956,0-11.913-2.271-16.455-6.817c-9.089-9.089-9.089-23.824,0-32.912l16.455-16.455l-16.455-16.455
	c-9.089-9.089-9.089-23.823,0-32.912c9.087-9.089,23.824-9.089,32.912,0l16.455,16.455V186.183c-7.902,0-15.67,0.577-23.273,1.669
	c-1.845,0.265-3.676,0.571-5.5,0.898c-0.348,0.062-0.694,0.123-1.04,0.186c-1.742,0.324-3.475,0.675-5.199,1.055
	c-0.36,0.079-0.72,0.161-1.077,0.244c-1.722,0.391-3.437,0.802-5.14,1.246c-0.121,0.033-0.242,0.065-0.363,0.096
	c-1.668,0.441-3.325,0.915-4.971,1.407c-0.399,0.119-0.799,0.236-1.196,0.358c-1.612,0.495-3.215,1.015-4.807,1.559
	c-0.417,0.143-0.83,0.292-1.247,0.436c-1.525,0.535-3.044,1.088-4.549,1.666c-0.265,0.101-0.529,0.205-0.793,0.307
	c-1.483,0.58-2.953,1.187-4.416,1.807c-0.425,0.182-0.852,0.36-1.275,0.545c-1.507,0.656-2.999,1.333-4.481,2.032
	c-0.163,0.078-0.332,0.147-0.495,0.225c-0.211,0.099-0.414,0.213-0.624,0.313c-1.727,0.832-3.44,1.688-5.134,2.579
	c-0.27,0.143-0.537,0.29-0.807,0.433c-1.773,0.945-3.53,1.916-5.264,2.925c-0.13,0.076-0.258,0.155-0.388,0.23
	c-1.837,1.075-3.654,2.181-5.444,3.326c-0.012,0.006-0.023,0.014-0.034,0.022c-1.815,1.162-3.603,2.361-5.37,3.592
	c-0.07,0.048-0.141,0.092-0.209,0.14c-0.039,0.028-0.079,0.057-0.119,0.087c-1.201,0.841-2.391,1.697-3.568,2.569
	c-0.316,0.234-0.628,0.475-0.945,0.712c-0.808,0.608-1.609,1.223-2.406,1.843c-0.247,0.192-0.5,0.377-0.745,0.571
	c-0.199,0.157-0.389,0.321-0.588,0.479c-1.078,0.863-2.152,1.736-3.209,2.624c-0.206,0.172-0.408,0.346-0.613,0.52
	c-1.055,0.897-2.098,1.809-3.131,2.731c-0.279,0.25-0.557,0.501-0.835,0.752c-2.386,2.163-4.709,4.392-6.965,6.69
	c-0.048,0.05-0.099,0.098-0.149,0.147c-0.088,0.092-0.175,0.185-0.264,0.276c-0.735,0.754-1.463,1.516-2.183,2.284
	c-0.147,0.157-0.293,0.315-0.441,0.472c-0.725,0.777-1.44,1.562-2.147,2.354c-0.135,0.15-0.27,0.301-0.405,0.451
	c-0.725,0.816-1.44,1.638-2.149,2.468c-0.107,0.127-0.219,0.254-0.326,0.382c-0.746,0.881-1.485,1.772-2.214,2.669
	c-0.062,0.076-0.124,0.152-0.188,0.228c-4.729,5.845-9.061,12.023-12.958,18.491c-0.079,0.132-0.163,0.261-0.242,0.393
	c-0.043,0.074-0.088,0.15-0.132,0.225c-0.597,1.001-1.184,2.008-1.761,3.024c-0.095,0.169-0.191,0.341-0.285,0.512
	c-0.521,0.925-1.033,1.853-1.536,2.788c-0.121,0.227-0.24,0.453-0.362,0.681c-0.47,0.884-0.934,1.773-1.387,2.669
	c-0.135,0.264-0.267,0.527-0.4,0.793c-0.434,0.867-0.861,1.739-1.282,2.614c-0.135,0.284-0.272,0.568-0.406,0.853
	c-0.41,0.867-0.808,1.739-1.202,2.614c-0.132,0.292-0.264,0.583-0.394,0.875c-0.391,0.884-0.774,1.775-1.151,2.667
	c-0.118,0.282-0.239,0.565-0.357,0.847c-0.383,0.926-0.757,1.857-1.125,2.791c-0.099,0.253-0.203,0.504-0.299,0.757
	c-0.397,1.022-0.782,2.05-1.157,3.081c-0.061,0.164-0.123,0.327-0.182,0.492c-1.314,3.641-2.501,7.34-3.558,11.095
	c-0.064,0.228-0.124,0.459-0.188,0.689c-0.275,0.996-0.545,1.994-0.801,2.996c-0.098,0.379-0.188,0.76-0.282,1.139
	c-0.213,0.861-0.424,1.722-0.624,2.59c-0.102,0.445-0.199,0.892-0.296,1.339c-0.178,0.805-0.354,1.609-0.521,2.419
	c-0.099,0.487-0.195,0.977-0.292,1.466c-0.152,0.774-0.299,1.548-0.441,2.326c-0.093,0.515-0.183,1.032-0.272,1.548
	c-0.13,0.757-0.254,1.516-0.372,2.278c-0.084,0.532-0.163,1.067-0.242,1.601c-0.109,0.751-0.214,1.505-0.312,2.259
	c-0.073,0.545-0.144,1.089-0.211,1.635c-0.092,0.756-0.174,1.514-0.256,2.271c-0.059,0.545-0.118,1.089-0.171,1.635
	c-0.074,0.771-0.141,1.547-0.205,2.323c-0.043,0.537-0.092,1.072-0.13,1.61c-0.057,0.807-0.106,1.615-0.152,2.425
	c-0.031,0.509-0.064,1.016-0.09,1.525c-0.043,0.897-0.071,1.795-0.101,2.695c-0.012,0.425-0.033,0.85-0.043,1.275
	c-0.028,1.328-0.047,2.659-0.047,3.995c0,19.034,3.291,37.309,9.318,54.303c2.861,8.065,6.327,15.846,10.367,23.273
	c1.15,2.113,2.349,4.197,3.589,6.253c3.573,5.928,7.509,11.613,11.785,17.02c29.86,37.775,76.072,62.061,127.851,62.061V449.94
	v-67.936H349.091z"/>
<g>
</g>
<g>
</g>
<g>
</g>
<g>
</g>
<g>
</g>
<g>
</g>
<g>
</g>
<g>
</g>
<g>
</g>
<g>
</g>
<g>
</g>
<g>
</g>
<g>
</g>
<g>
</g>
<g>
</g>
</svg>
