<?xml version="1.0" encoding="iso-8859-1"?>
<!-- Generator: Adobe Illustrator 19.0.0, SVG Export Plug-In . SVG Version: 6.00 Build 0)  -->
<svg version="1.1" id="Layer_1" xmlns="http://www.w3.org/2000/svg" xmlns:xlink="http://www.w3.org/1999/xlink" x="0px" y="0px"
	 viewBox="0 0 512 512" style="enable-background:new 0 0 512 512;" xml:space="preserve">
<path style="fill:#FFE49C;" d="M243.234,506.634L130.829,391.765c-11.037-11.28-3.023-30.352,12.766-30.352h54.52V283.48
	c0-9.864,7.997-17.861,17.861-17.861h80.05c9.864,0,17.861,7.997,17.861,17.861v77.933h54.52c15.78,0,23.807,19.068,12.766,30.352
	L268.766,506.634C261.755,513.796,250.231,513.783,243.234,506.634z"/>
<path style="fill:#FFD155;" d="M368.404,361.413h-54.52V283.48c0-9.864-7.997-17.861-17.861-17.861h-40.029v246.379
	c4.632,0.001,9.265-1.786,12.769-5.366l112.405-114.868C392.21,380.481,384.183,361.413,368.404,361.413z"/>
<path style="fill:#48AEE2;" d="M388.809,301.342H123.19c-9.864,0-17.861-7.997-17.861-17.861V17.861
	C105.329,7.997,113.326,0,123.19,0h199.542c4.737,0,9.28,1.883,12.63,5.232l66.078,66.078c3.349,3.349,5.232,7.892,5.232,12.629
	V283.48C406.67,293.345,398.673,301.342,388.809,301.342z"/>
<path style="fill:#3797D3;" d="M401.438,71.31L335.36,5.232C332.01,1.883,327.468,0,322.731,0h-66.735v301.342h132.813
	c9.864,0,17.861-7.997,17.861-17.861V83.939C406.67,79.202,404.787,74.659,401.438,71.31z"/>
<g>
	<path style="fill:#8DC3E9;" d="M346.279,301.342H165.72V177.915c0-9.864,7.997-17.861,17.861-17.861h144.838
		c9.864,0,17.861,7.997,17.861,17.861v123.427H346.279z"/>
	<path style="fill:#8DC3E9;" d="M298.815,100.16h-85.632c-9.864,0-17.861-7.997-17.861-17.861s7.997-17.861,17.861-17.861h85.632
		c9.864,0,17.861,7.997,17.861,17.861S308.68,100.16,298.815,100.16z"/>
</g>
<g>
	<path style="fill:#48AEE2;" d="M346.279,177.915c0-9.864-7.997-17.861-17.861-17.861h-72.423v141.288h90.284V177.915z"/>
	<path style="fill:#48AEE2;" d="M298.815,64.438h-42.82v35.721h42.82c9.864,0,17.861-7.997,17.861-17.861
		S308.68,64.438,298.815,64.438z"/>
</g>
<g>
</g>
<g>
</g>
<g>
</g>
<g>
</g>
<g>
</g>
<g>
</g>
<g>
</g>
<g>
</g>
<g>
</g>
<g>
</g>
<g>
</g>
<g>
</g>
<g>
</g>
<g>
</g>
<g>
</g>
</svg>
