<?xml version="1.0" encoding="iso-8859-1"?>
<!-- Generator: Adobe Illustrator 19.0.0, SVG Export Plug-In . SVG Version: 6.00 Build 0)  -->
<svg version="1.1" id="Layer_1" xmlns="http://www.w3.org/2000/svg" xmlns:xlink="http://www.w3.org/1999/xlink" x="0px" y="0px"
	 viewBox="0 0 512 512" style="enable-background:new 0 0 512 512;" xml:space="preserve">
<path style="fill:#004573;" d="M410.861,0.57H25.348C11.348,0.57,0,11.918,0,25.918v264.778c0,4.304,3.489,7.793,7.793,7.793
	h420.623c4.304,0,7.793-3.489,7.793-7.793V25.918C436.208,11.918,424.86,0.57,410.861,0.57z"/>
<path style="fill:#005A95;" d="M218.105,0.57h-191.6C11.867,0.57,0,12.436,0,27.074V290.34c0,4.5,3.648,8.148,8.148,8.148h209.955
	V0.57H218.105z"/>
<path style="fill:#ACACB2;" d="M377.471,58.023H58.737c-4.95,0-8.962,4.013-8.962,8.962v179.866h336.658V66.986
	C386.434,62.036,382.421,58.023,377.471,58.023z"/>
<path style="fill:#E1E1E3;" d="M218.105,58.023H59.146c-5.175,0-9.371,4.196-9.371,9.371v179.457h168.329V58.023z"/>
<path style="fill:#005A95;" d="M174.055,121.29c-7.368,0-14.072,4.259-17.203,10.928l-22.912,48.801H19.005
	C8.509,181.02,0,189.528,0,200.025v208.15c0,10.496,8.508,19.005,19.005,19.005h398.199c10.496,0,19.005-8.508,19.005-19.005
	v-267.88c0-10.496-8.508-19.005-19.005-19.005H174.055V121.29z"/>
<circle style="fill:#FF9800;" cx="410.911" cy="410.341" r="101.089"/>
<path style="fill:#F7DC4D;" d="M309.819,410.338c0,55.83,45.26,101.09,101.09,101.09V309.247
	C355.078,309.247,309.819,354.507,309.819,410.338z"/>
<path style="fill:#005A95;" d="M451.025,392.854h-22.632v-22.632c0-9.655-7.827-17.482-17.482-17.482
	c-9.655,0-17.482,7.827-17.482,17.482v22.632h-22.634c-9.655,0-17.482,7.827-17.482,17.482s7.827,17.482,17.482,17.482h22.633
	v22.632c0,9.655,7.827,17.482,17.482,17.482c9.655,0,17.482-7.827,17.482-17.482v-22.632h22.632c9.655,0,17.482-7.827,17.482-17.482
	C468.508,400.683,460.681,392.854,451.025,392.854z"/>
<path style="fill:#0075C2;" d="M410.91,352.74c-9.655,0-17.482,7.827-17.482,17.482v22.632h-22.633
	c-9.655,0-17.482,7.827-17.482,17.482s7.827,17.482,17.482,17.482h22.633v22.632c0,9.655,7.827,17.482,17.482,17.482L410.91,352.74
	L410.91,352.74z"/>
<path style="fill:#31AAEF;" d="M218.105,121.29h-44.049c-7.368,0-14.072,4.258-17.204,10.928l-22.912,48.801H19.005
	C8.509,181.02,0,189.528,0,200.025v208.15c0,10.496,8.508,19.005,19.005,19.005h199.1V121.29z"/>
<g>
</g>
<g>
</g>
<g>
</g>
<g>
</g>
<g>
</g>
<g>
</g>
<g>
</g>
<g>
</g>
<g>
</g>
<g>
</g>
<g>
</g>
<g>
</g>
<g>
</g>
<g>
</g>
<g>
</g>
</svg>
