<?xml version="1.0" encoding="iso-8859-1"?>
<!-- Generator: Adobe Illustrator 19.0.0, SVG Export Plug-In . SVG Version: 6.00 Build 0)  -->
<svg version="1.1" id="Layer_1" xmlns="http://www.w3.org/2000/svg" xmlns:xlink="http://www.w3.org/1999/xlink" x="0px" y="0px"
	 viewBox="0 0 512 512" style="enable-background:new 0 0 512 512;" xml:space="preserve">
<path style="fill:#FFD155;" d="M493.268,479.225H18.732C8.387,479.225,0,470.838,0,460.493v-91.372
	c0-10.345,8.387-18.732,18.732-18.732h474.537c10.345,0,18.732,8.387,18.732,18.732v91.372
	C512,470.838,503.613,479.225,493.268,479.225z"/>
<path style="fill:#FFC72D;" d="M493.268,350.389H256v128.835h237.268c10.345,0,18.732-8.387,18.732-18.732v-91.372
	C512,358.776,503.613,350.389,493.268,350.389z"/>
<path style="fill:#FFDA79;" d="M512,387.852H0V51.507c0-10.345,8.387-18.732,18.732-18.732h161.02
	c7.864,0,14.89,4.913,17.592,12.298l30.92,84.529h265.005c10.345,0,18.732,8.387,18.732,18.732V387.852z"/>
<g>
	<path style="fill:#FFD155;" d="M512,148.334c0-10.345-8.387-18.732-18.732-18.732H256v258.25h256V148.334z"/>
	<path style="fill:#FFD155;" d="M338.875,277.46H197.727c-10.345,0-18.732-8.387-18.732-18.732c0-10.345,8.387-18.732,18.732-18.732
		h141.148c10.345,0,18.732,8.387,18.732,18.732C357.607,269.073,349.22,277.46,338.875,277.46z"/>
</g>
<path style="fill:#FFC72D;" d="M338.875,239.997H256v37.463h82.875c10.345,0,18.732-8.387,18.732-18.732
	C357.607,248.384,349.22,239.997,338.875,239.997z"/>
<g>
</g>
<g>
</g>
<g>
</g>
<g>
</g>
<g>
</g>
<g>
</g>
<g>
</g>
<g>
</g>
<g>
</g>
<g>
</g>
<g>
</g>
<g>
</g>
<g>
</g>
<g>
</g>
<g>
</g>
</svg>
