<?xml version="1.0" encoding="iso-8859-1"?>
<!-- Generator: Adobe Illustrator 19.0.0, SVG Export Plug-In . SVG Version: 6.00 Build 0)  -->
<svg version="1.1" id="Layer_1" xmlns="http://www.w3.org/2000/svg" xmlns:xlink="http://www.w3.org/1999/xlink" x="0px" y="0px"
	 viewBox="0 0 512 512" style="enable-background:new 0 0 512 512;" xml:space="preserve">
<path style="fill:#80D0E1;" d="M256.004,322.152L256.004,322.152c-11.978,0-23.173-4.724-31.526-13.3l-93.431-95.936
	c-12.361-12.692-15.891-31.464-8.989-47.822c6.788-16.088,21.292-26.88,44.185-26.88V63.19c0-24.264,19.739-44.003,44.003-44.003
	h91.51c24.264,0,44.001,19.739,44.001,44.003v75.025c22.842,0,37.38,10.773,44.189,26.915c6.894,16.346,3.363,35.105-8.999,47.791
	l-93.425,95.933C279.173,317.43,267.976,322.152,256.004,322.152z M162.303,181.96L162.303,181.96L162.303,181.96z"/>
<path style="fill:#6A82A1;" d="M446.411,492.813H65.589C29.423,492.813,0,463.39,0,427.224V290.576
	c0-12.074,9.789-21.863,21.863-21.863h103.179c12.074,0,21.863,9.789,21.863,21.863v55.331h218.191v-55.331
	c0-12.074,9.789-21.863,21.863-21.863h103.179c12.074,0,21.863,9.789,21.863,21.863v136.648
	C512,463.39,482.578,492.813,446.411,492.813z"/>
<path style="fill:#51B3DA;" d="M389.948,165.128c-6.836-16.203-21.414-26.915-44.189-26.915V63.19
	c0-24.264-19.739-44.003-44.001-44.003h-45.756v302.965c0.001,0,0.001,0,0.003,0l0,0c11.972,0,23.169-4.724,31.521-13.3
	l93.425-95.933C393.31,200.234,396.843,181.476,389.948,165.128z"/>
<path style="fill:#36495E;" d="M490.137,268.713H386.958c-12.074,0-21.863,9.789-21.863,21.863v55.331H255.999v146.906h190.412
	c36.167,0,65.589-29.423,65.589-65.589V290.576C512,278.502,502.211,268.713,490.137,268.713z"/>
<g>
</g>
<g>
</g>
<g>
</g>
<g>
</g>
<g>
</g>
<g>
</g>
<g>
</g>
<g>
</g>
<g>
</g>
<g>
</g>
<g>
</g>
<g>
</g>
<g>
</g>
<g>
</g>
<g>
</g>
</svg>
