<?xml version="1.0" encoding="iso-8859-1"?>
<!-- Generator: Adobe Illustrator 19.0.0, SVG Export Plug-In . SVG Version: 6.00 Build 0)  -->
<svg version="1.1" id="Capa_1" xmlns="http://www.w3.org/2000/svg" xmlns:xlink="http://www.w3.org/1999/xlink" x="0px" y="0px"
	 viewBox="0 0 512 512" style="enable-background:new 0 0 512 512;" xml:space="preserve">
<path style="fill:#6D737F;" d="M497,512H15c-8.284,0-15-6.716-15-15V15C0,6.716,6.716,0,15,0h332c3.978,0,7.793,1.58,10.606,4.394
	l150,150C510.419,157.206,512,161.021,512,165v332C512,505.284,505.284,512,497,512z"/>
<path style="fill:#5E5F69;" d="M507.606,154.394l-150-150C354.793,1.58,350.978,0,347,0h-91v512h241c8.284,0,15-6.716,15-15V165
	C512,161.021,510.419,157.206,507.606,154.394z"/>
<path style="fill:#FFF9FC;" d="M421,512H91V277c0-8.284,6.716-15,15-15h300c8.284,0,15,6.716,15,15V512z"/>
<path style="fill:#DFDAE0;" d="M421,277c0-8.284-6.716-15-15-15H256v250h165V277z"/>
<g>
</g>
<g>
</g>
<g>
</g>
<g>
</g>
<g>
</g>
<g>
</g>
<g>
</g>
<g>
</g>
<g>
</g>
<g>
</g>
<g>
</g>
<g>
</g>
<g>
</g>
<g>
</g>
<g>
</g>
</svg>
