<?xml version="1.0" encoding="iso-8859-1"?>
<!-- Generator: Adobe Illustrator 19.0.0, SVG Export Plug-In . SVG Version: 6.00 Build 0)  -->
<svg version="1.1" id="Capa_1" xmlns="http://www.w3.org/2000/svg" xmlns:xlink="http://www.w3.org/1999/xlink" x="0px" y="0px"
	 viewBox="0 0 512 512" style="enable-background:new 0 0 512 512;" xml:space="preserve">
<path style="fill:#FD7F56;" d="M416,100H96c-8.284,0-15,6.716-15,15v382c0,8.284,6.716,15,15,15h320c8.284,0,15-6.716,15-15V115
	C431,106.716,424.284,100,416,100z"/>
<path style="fill:#FC644D;" d="M416,100H256v412h160c8.284,0,15-6.716,15-15V115C431,106.716,424.284,100,416,100z"/>
<g>
	<path style="fill:#57606E;" d="M173,180h19.33c6.627,0,12,5.373,12,12v40c0,6.627-5.373,12-12,12H173c-6.627,0-12-5.373-12-12v-40
		C161,185.373,166.373,180,173,180z"/>
	<path style="fill:#57606E;" d="M173,274h19.33c6.627,0,12,5.373,12,12v40c0,6.627-5.373,12-12,12H173c-6.627,0-12-5.373-12-12v-40
		C161,279.373,166.373,274,173,274z"/>
	<path style="fill:#57606E;" d="M173,368h19.33c6.627,0,12,5.373,12,12v40c0,6.627-5.373,12-12,12H173c-6.627,0-12-5.373-12-12v-40
		C161,373.373,166.373,368,173,368z"/>
	<path style="fill:#57606E;" d="M246.33,180h19.34c6.627,0,12,5.373,12,12v40c0,6.627-5.373,12-12,12h-19.34
		c-6.627,0-12-5.373-12-12v-40C234.33,185.373,239.703,180,246.33,180z"/>
	<path style="fill:#57606E;" d="M246.33,274h19.34c6.627,0,12,5.373,12,12v40c0,6.627-5.373,12-12,12h-19.34
		c-6.627,0-12-5.373-12-12v-40C234.33,279.373,239.703,274,246.33,274z"/>
	<path style="fill:#57606E;" d="M246.33,368h19.34c6.627,0,12,5.373,12,12v40c0,6.627-5.373,12-12,12h-19.34
		c-6.627,0-12-5.373-12-12v-40C234.33,373.373,239.703,368,246.33,368z"/>
</g>
<path style="fill:#FAD557;" d="M416,0H96c-8.284,0-15,6.716-15,15v115h350V15C431,6.716,424.284,0,416,0z"/>
<path style="fill:#FCB12B;" d="M431,15c0-8.284-6.716-15-15-15H256v130h175V15z"/>
<g>
	<path style="fill:#2F3542;" d="M265.67,180H256v64h9.67c6.627,0,12-5.373,12-12v-40C277.67,185.373,272.297,180,265.67,180z"/>
	<path style="fill:#2F3542;" d="M265.67,274H256v64h9.67c6.627,0,12-5.373,12-12v-40C277.67,279.373,272.297,274,265.67,274z"/>
	<path style="fill:#2F3542;" d="M265.67,368H256v64h9.67c6.627,0,12-5.373,12-12v-40C277.67,373.373,272.297,368,265.67,368z"/>
	<path style="fill:#2F3542;" d="M351,192v40c0,6.627-5.373,12-12,12h-19.33c-6.627,0-12-5.373-12-12v-40c0-6.627,5.373-12,12-12H339
		C345.627,180,351,185.373,351,192z"/>
</g>
<path style="fill:#3AD475;" d="M319.67,274H339c6.627,0,12,5.373,12,12v134c0,6.627-5.373,12-12,12h-19.33c-6.627,0-12-5.373-12-12
	V286C307.67,279.373,313.043,274,319.67,274z"/>
<g>
	<path style="fill:#2892FC;" d="M366,90c-8.284,0-15-6.716-15-15V55c0-8.284,6.716-15,15-15s15,6.716,15,15v20
		C381,83.284,374.284,90,366,90z"/>
	<path style="fill:#2892FC;" d="M326,90c-8.284,0-15-6.716-15-15V55c0-8.284,6.716-15,15-15s15,6.716,15,15v20
		C341,83.284,334.284,90,326,90z"/>
</g>
<g>
</g>
<g>
</g>
<g>
</g>
<g>
</g>
<g>
</g>
<g>
</g>
<g>
</g>
<g>
</g>
<g>
</g>
<g>
</g>
<g>
</g>
<g>
</g>
<g>
</g>
<g>
</g>
<g>
</g>
</svg>
