<?xml version="1.0" encoding="iso-8859-1"?>
<!-- Generator: Adobe Illustrator 19.0.0, SVG Export Plug-In . SVG Version: 6.00 Build 0)  -->
<svg xmlns="http://www.w3.org/2000/svg" xmlns:xlink="http://www.w3.org/1999/xlink" version="1.1" id="Capa_1" x="0px" y="0px" viewBox="0 0 512 512" style="enable-background:new 0 0 512 512;" xml:space="preserve">
<path style="fill:#FCB33B;" d="M134.999,0H15C6.72,0,0,6.72,0,15v481.996c0,8.28,6.72,15,15,15h119.999c8.28,0,15-6.72,15-15V15  C149.999,6.72,143.279,0,134.999,0z"/>
<g>
	<path style="fill:#995D5C;" d="M149.999,62v30H74.999c-8.28,0-15-6.72-15-15s6.72-15,15-15H149.999z"/>
	<path style="fill:#995D5C;" d="M149.999,121.999v30h-45c-8.28,0-15-6.72-15-15c0-8.28,6.72-15,15-15H149.999z"/>
	<path style="fill:#995D5C;" d="M149.999,181.999v30H74.999c-8.28,0-15-6.72-15-15c0-8.28,6.72-15,15-15H149.999z"/>
	<path style="fill:#995D5C;" d="M149.999,241.998v30h-45c-8.28,0-15-6.72-15-15c0-8.28,6.72-15,15-15H149.999z"/>
	<path style="fill:#995D5C;" d="M149.999,301.998v30H74.999c-8.28,0-15-6.72-15-15s6.72-15,15-15H149.999z"/>
	<path style="fill:#995D5C;" d="M149.999,361.997v30h-45c-8.28,0-15-6.72-15-15c0-8.28,6.72-15,15-15H149.999z"/>
	<path style="fill:#995D5C;" d="M149.999,421.997v30H74.999c-8.28,0-15-6.72-15-15s6.72-15,15-15H149.999z"/>
</g>
<path style="fill:#7F838C;" d="M376.997,100.029c-2.595,0-5.189-0.672-7.513-2.017c-6.798-3.934-14.573-6.013-22.487-6.013  c-7.914,0-15.689,2.079-22.487,6.013c-4.642,2.686-10.362,2.689-15.007,0.011c-4.644-2.679-7.506-7.632-7.506-12.994V45  c0-24.813,20.187-45,45-45c24.813,0,45,20.187,45,45v40.03c0,5.362-2.862,10.315-7.506,12.994  C382.172,99.36,379.584,100.029,376.997,100.029z"/>
<path id="SVGCleanerId_0" style="fill:#53565C;" d="M496.996,512c-6.179,0-11.965-3.846-14.142-10.003L371.72,187.712  c-2.762-7.81,1.331-16.38,9.142-19.143c7.809-2.76,16.38,1.332,19.143,9.142l111.133,314.286c2.762,7.81-1.331,16.38-9.142,19.143  C500.344,511.723,498.655,512,496.996,512z"/>
<path id="SVGCleanerId_1" style="fill:#5C5F66;" d="M196.998,512c-1.661,0-3.349-0.277-5.003-0.863  c-7.81-2.763-11.901-11.334-9.138-19.144L294.04,177.749c2.763-7.811,11.335-11.903,19.144-9.138  c7.81,2.763,11.901,11.334,9.138,19.144L211.139,501.999C208.961,508.155,203.175,512,196.998,512z"/>
<g>
	<path id="SVGCleanerId_0_1_" style="fill:#53565C;" d="M496.996,512c-6.179,0-11.965-3.846-14.142-10.003L371.72,187.712   c-2.762-7.81,1.331-16.38,9.142-19.143c7.809-2.76,16.38,1.332,19.143,9.142l111.133,314.286c2.762,7.81-1.331,16.38-9.142,19.143   C500.344,511.723,498.655,512,496.996,512z"/>
</g>
<g>
	<path id="SVGCleanerId_1_1_" style="fill:#5C5F66;" d="M196.998,512c-1.661,0-3.349-0.277-5.003-0.863   c-7.81-2.763-11.901-11.334-9.138-19.144L294.04,177.749c2.763-7.811,11.335-11.903,19.144-9.138   c7.81,2.763,11.901,11.334,9.138,19.144L211.139,501.999C208.961,508.155,203.175,512,196.998,512z"/>
</g>
<path style="fill:#757982;" d="M369.484,98.012c2.324,1.345,4.918,2.017,7.513,2.017c2.587,0,5.175-0.668,7.494-2.006  c4.644-2.679,7.506-7.632,7.506-12.994V45c0-24.813-20.187-45-45-45v91.999C354.911,91.999,362.686,94.078,369.484,98.012z"/>
<path style="fill:#7F838C;" d="M481.996,391.997H211.998c-8.284,0-15-6.716-15-15c0-8.284,6.716-15,15-15h269.998  c8.284,0,15,6.716,15,15C496.996,385.281,490.28,391.997,481.996,391.997z"/>
<path style="fill:#757982;" d="M346.997,391.997h134.999c8.284,0,15-6.716,15-15c0-8.284-6.716-15-15-15H346.997V391.997z"/>
<path style="fill:#5C5F66;" d="M346.997,421.997c-8.284,0-15-6.716-15-15v-60c0-8.284,6.716-15,15-15c8.284,0,15,6.716,15,15v60  C361.997,415.281,355.281,421.997,346.997,421.997z"/>
<path style="fill:#53565C;" d="M361.997,406.997v-60c0-8.284-6.716-15-15-15v89.999  C355.281,421.997,361.997,415.281,361.997,406.997z"/>
<path style="fill:#5C5F66;" d="M346.997,211.998c-17.777,0-35.013-6.329-48.534-17.82c-16.817-14.273-26.466-35.117-26.466-57.18  c0-26.691,14.365-51.581,37.49-64.954C320.842,65.474,333.814,62,346.997,62c13.183,0,26.155,3.474,37.513,10.047  c23.122,13.373,37.487,38.262,37.487,64.952c0,22.031-9.626,42.855-26.41,57.135C382.05,205.653,364.793,211.998,346.997,211.998z"/>
<path style="fill:#53565C;" d="M395.587,194.134c16.784-14.279,26.41-35.104,26.41-57.135c0-26.691-14.365-51.581-37.487-64.952  C373.152,65.474,360.18,62,346.997,62v149.999C364.793,211.998,382.05,205.653,395.587,194.134z"/>
<path style="fill:#E6EEFF;" d="M346.997,181.999c-10.667,0-21.003-3.792-29.106-10.68c-10.106-8.577-15.894-21.082-15.894-34.32  c0-16.017,8.625-30.956,22.51-38.986c6.802-3.935,14.576-6.014,22.49-6.014c7.914,0,15.69,2.079,22.487,6.013  c13.889,8.033,22.513,22.97,22.513,38.987c0,13.219-5.777,25.716-15.85,34.285C368.027,178.195,357.676,181.999,346.997,181.999z"/>
<path style="fill:#DAE2F2;" d="M376.147,171.284c10.073-8.569,15.85-21.066,15.85-34.285c0-16.017-8.624-30.955-22.513-38.987  c-6.797-3.934-14.573-6.013-22.487-6.013v89.999C357.676,181.999,368.027,178.195,376.147,171.284z"/>
<g>
</g>
<g>
</g>
<g>
</g>
<g>
</g>
<g>
</g>
<g>
</g>
<g>
</g>
<g>
</g>
<g>
</g>
<g>
</g>
<g>
</g>
<g>
</g>
<g>
</g>
<g>
</g>
<g>
</g>
</svg>
