<?xml version="1.0" encoding="iso-8859-1"?>
<!-- Generator: Adobe Illustrator 19.0.0, SVG Export Plug-In . SVG Version: 6.00 Build 0)  -->
<svg version="1.1" id="Capa_1" xmlns="http://www.w3.org/2000/svg" xmlns:xlink="http://www.w3.org/1999/xlink" x="0px" y="0px"
	 viewBox="0 0 512 512" style="enable-background:new 0 0 512 512;" xml:space="preserve">
<path style="fill:#72A3FC;" d="M497,141H15c-8.284,0-15,6.716-15,15v290c0,8.284,6.716,15,15,15h482c8.284,0,15-6.716,15-15V156
	C512,147.716,505.284,141,497,141z"/>
<path style="fill:#2892FC;" d="M497,141H256v320h241c8.284,0,15-6.716,15-15V156C512,147.716,505.284,141,497,141z"/>
<path style="fill:#FAD557;" d="M108.256,378.839c-6.549-5.073-7.746-14.495-2.673-21.044l55.423-71.555
	c4.243-5.481,11.692-7.337,18.013-4.495l84.076,37.823l122.177-96.328c6.505-5.129,15.938-4.013,21.066,2.492
	s4.014,15.937-2.492,21.066L274.524,348.76c-4.392,3.461-10.342,4.194-15.441,1.9l-81.596-36.708L129.3,376.166
	C124.253,382.683,114.836,383.935,108.256,378.839z"/>
<path style="fill:#57606E;" d="M497,51H15C6.716,51,0,57.716,0,66v105h512V66C512,57.716,505.284,51,497,51z"/>
<path style="fill:#2F3542;" d="M512,66c0-8.284-6.716-15-15-15H256v120h256V66z"/>
<path style="fill:#FCB12B;" d="M406.338,225.732c-5.129-6.505-14.562-7.621-21.066-2.492l-122.177,96.328L256,316.377v32.896
	l3.083,1.387c5.1,2.293,11.05,1.561,15.441-1.9l129.321-101.961C410.352,241.669,411.467,232.238,406.338,225.732z"/>
<g>
	<path style="fill:#DFE4EA;" d="M381.758,126h-52c-8.284,0-15-6.716-15-15s6.716-15,15-15h52c8.284,0,15,6.716,15,15
		S390.042,126,381.758,126z"/>
	<circle style="fill:#DFE4EA;" cx="435.76" cy="111" r="20"/>
</g>
<g>
</g>
<g>
</g>
<g>
</g>
<g>
</g>
<g>
</g>
<g>
</g>
<g>
</g>
<g>
</g>
<g>
</g>
<g>
</g>
<g>
</g>
<g>
</g>
<g>
</g>
<g>
</g>
<g>
</g>
</svg>
