<?xml version="1.0" encoding="iso-8859-1"?>
<!-- Generator: Adobe Illustrator 19.0.0, SVG Export Plug-In . SVG Version: 6.00 Build 0)  -->
<svg version="1.1" id="Layer_1" xmlns="http://www.w3.org/2000/svg" xmlns:xlink="http://www.w3.org/1999/xlink" x="0px" y="0px"
	 viewBox="0 0 512 512" style="enable-background:new 0 0 512 512;" xml:space="preserve">
<path style="fill:#00D7DF;" d="M489.739,512H22.261c-9.217,0-16.696-7.473-16.696-16.696V16.696C5.565,7.473,13.044,0,22.261,0
	h467.478c9.217,0,16.696,7.473,16.696,16.696v478.609C506.435,504.527,498.956,512,489.739,512z"/>
<path style="fill:#00B6BD;" d="M489.739,0H256v512h233.739c9.217,0,16.696-7.473,16.696-16.696V16.696
	C506.435,7.473,498.956,0,489.739,0z"/>
<g>
	<path style="fill:#FFFFFF;" d="M422.957,244.87H272.696V94.609c0-9.223-7.479-16.696-16.696-16.696s-16.696,7.473-16.696,16.696
		V244.87H89.043c-9.217,0-16.696,7.473-16.696,16.696c0,9.223,7.479,16.696,16.696,16.696h150.261v150.261
		c0,9.223,7.479,16.696,16.696,16.696s16.696-7.473,16.696-16.696V278.261h150.261c9.217,0,16.696-7.473,16.696-16.696
		C439.652,252.343,432.174,244.87,422.957,244.87z"/>
	<path style="fill:#FFFFFF;" d="M89.043,311.652c-9.217,0-16.696,7.473-16.696,16.696s7.479,16.696,16.696,16.696
		c46.032,0,83.478,37.446,83.478,83.478c0,9.223,7.479,16.696,16.696,16.696c9.217,0,16.696-7.473,16.696-16.696
		C205.913,364.081,153.489,311.652,89.043,311.652z"/>
	<path style="fill:#FFFFFF;" d="M139.13,130.114v36.843c0,9.223,7.479,16.696,16.696,16.696s16.696-7.473,16.696-16.696v-36.843
		l33.131-28.397c7-6,7.805-16.538,1.804-23.538c-6-6.989-16.533-7.82-23.543-1.81l-28.088,24.076L127.74,76.369
		c-7.011-6.016-17.533-5.196-23.543,1.81c-6,7-5.196,17.538,1.804,23.538L139.13,130.114z"/>
</g>
<g>
	<path style="fill:#FFE6B3;" d="M272.696,428.522V278.261h150.261c9.217,0,16.696-7.473,16.696-16.696
		c0-9.223-7.479-16.696-16.696-16.696H272.696V94.609c0-9.223-7.479-16.696-16.696-16.696v367.304
		C265.217,445.217,272.696,437.744,272.696,428.522z"/>
	<path style="fill:#FFE6B3;" d="M422.957,211.478c9.217,0,16.696-7.473,16.696-16.696c0-9.223-7.479-16.696-16.696-16.696
		c-46.032,0-83.478-37.446-83.478-83.478c0-9.223-7.479-16.696-16.696-16.696s-16.696,7.473-16.696,16.696
		C306.087,159.049,358.511,211.478,422.957,211.478z"/>
	<path style="fill:#FFE6B3;" d="M429.195,322.109c-6.521-6.521-17.087-6.521-23.609,0L384,343.696l-21.587-21.587
		c-6.521-6.521-17.087-6.521-23.609,0c-6.521,6.516-6.521,17.092,0,23.609l21.587,21.587l-21.587,21.587
		c-6.521,6.516-6.521,17.092,0,23.609c3.261,3.261,7.533,4.892,11.804,4.892s8.544-1.631,11.804-4.892L384,390.913l21.587,21.587
		c3.261,3.261,7.533,4.892,11.804,4.892s8.544-1.631,11.804-4.892c6.521-6.516,6.521-17.092,0-23.609l-21.586-21.587l21.587-21.587
		C435.718,339.201,435.718,328.625,429.195,322.109z"/>
</g>
<g>
</g>
<g>
</g>
<g>
</g>
<g>
</g>
<g>
</g>
<g>
</g>
<g>
</g>
<g>
</g>
<g>
</g>
<g>
</g>
<g>
</g>
<g>
</g>
<g>
</g>
<g>
</g>
<g>
</g>
</svg>
