<?xml version="1.0" encoding="iso-8859-1"?>
<!-- Generator: Adobe Illustrator 19.0.0, SVG Export Plug-In . SVG Version: 6.00 Build 0)  -->
<svg version="1.1" id="Capa_1" xmlns="http://www.w3.org/2000/svg" xmlns:xlink="http://www.w3.org/1999/xlink" x="0px" y="0px"
	 viewBox="0 0 512 512" style="enable-background:new 0 0 512 512;" xml:space="preserve">
<path style="fill:#D9D9D9;" d="M270.757,240.229c5.936,5.936,5.725,15.48,0,21.204l-21.204,21.204
	c-5.938,5.938-15.268,5.936-21.204,0c-5.726-5.726-5.938-15.267,0-21.204l21.204-21.204
	C255.276,234.505,265.031,234.503,270.757,240.229z"/>
<path style="fill:#C8C6CD;" d="M270.757,240.229c5.936,5.936,5.725,15.48,0,21.204l-21.204,21.204
	c-5.938,5.938-15.268,5.936-21.204,0L270.757,240.229z"/>
<path style="fill:#54E360;" d="M119.949,255.021l-61.225-18.742L0,255.021c0,70.275,28.585,135.998,74.739,182.152l71.449,1.02
	l13.328-85.797C135.082,327.962,119.949,292.227,119.949,255.021z"/>
<path style="fill:#FDBF00;" d="M418.074,371.971l-65.806-19.575c-24.435,24.435-59.17,39.567-96.375,39.567l-39.358,78.717
	l39.358,41.232c70.275,0,134.998-28.585,181.153-74.739L418.074,371.971z"/>
<path style="fill:#E61E14;" d="M461.405,102.985c0,0,0-0.3-0.3-0.3c-7.497-9.897-15.294-19.192-23.99-27.587l-50.905,6.871
	l-34.261,77.992c25.49,24.59,39.884,58.776,39.884,95.061l81.841,36.234l38.108-36.235
	C511.784,190.263,483.346,124.925,461.405,102.985z"/>
<path style="fill:#3AAAFF;" d="M255.892,0.128c-70.275,0-134.998,28.585-181.153,74.739c0,0,4.601,65.201,0.229,69.575
	c-4.372,4.372,84.548,15.203,84.548,15.203c24.435-24.435,59.17-39.567,96.375-39.567l41.856-51.229L255.892,0.128z"/>
<path style="fill:#00CC71;" d="M159.517,159.645L74.739,74.868C28.585,121.022,0,184.745,0,255.021h119.949
	C119.949,217.814,135.082,184.079,159.517,159.645z"/>
<path style="fill:#FD4E26;" d="M391.835,255.021c0,37.206-15.133,72.941-39.567,97.375l84.777,84.777
	c46.155-46.155,74.739-111.877,74.739-182.152H391.835z"/>
<path style="fill:#FFD400;" d="M159.517,352.396l-84.777,84.777c46.155,46.155,110.877,74.739,181.153,74.739V391.963
	C218.686,391.963,183.95,376.83,159.517,352.396z"/>
<path style="fill:#0095FF;" d="M437.116,75.097l-85.165,84.863c-6.296-6.896-13.194-12.294-20.691-17.392l-0.3-0.3
	c-22.191-14.694-48.678-22.191-75.067-22.191V0.128C324.863,0.128,389.736,27.116,437.116,75.097z"/>
<path style="fill:#D9D9D9;" d="M356.361,92.011l-86.029,85.029l-20.567,20.992c-16.965,16.115-18.66,44.528-0.212,63.4l0.212,0.212
	c17.811,17.81,47.012,17.176,64.4-0.212l105.809-105.808l-31.594-32.018l-31.595-31.595H356.361z"/>
<path style="fill:#5A5A5A;" d="M494.401,17.585C505.852,29.035,512,44.091,512,60.206c-0.212,23.536-13.57,43.681-33.291,53.646
	c-21.84,10.392-41.559,24.598-58.31,41.349c-0.212,0.212-0.212,0.212-0.425,0.425l-31.594-32.018l-31.807-31.807
	c16.751-16.751,31.382-36.895,41.771-58.311C416.58-3.407,465.564-11.253,494.401,17.585z"/>
<path style="fill:#C8C6CD;" d="M388.38,123.606l31.594,32.018L314.164,261.434c-17.388,17.388-46.589,18.023-64.4,0.212
	l-0.212-0.212L388.38,123.606z"/>
<g>
	<path style="fill:#444444;" d="M494.401,17.585C505.852,29.035,512,44.091,512,60.206c-0.212,23.536-13.57,43.681-33.291,53.646
		c-21.84,10.392-41.559,24.598-58.31,41.349c-0.212,0.212-0.212,0.212-0.425,0.425l-31.594-32.018L494.401,17.585z"/>
	<path style="fill:#444444;" d="M356.574,70.595l84.817,84.817c5.936,5.936,5.725,15.48,0,21.204
		c-5.938,5.938-15.268,5.936-21.204,0L335.37,91.8c-5.726-5.726-5.938-15.267,0-21.204C341.093,64.871,350.848,64.87,356.574,70.595
		z"/>
</g>
<path style="fill:#2B292C;" d="M398.982,113.004l42.408,42.408c5.936,5.936,5.725,15.48,0,21.204
	c-5.938,5.938-15.268,5.936-21.204,0l-42.408-42.408L398.982,113.004z"/>
<g>
</g>
<g>
</g>
<g>
</g>
<g>
</g>
<g>
</g>
<g>
</g>
<g>
</g>
<g>
</g>
<g>
</g>
<g>
</g>
<g>
</g>
<g>
</g>
<g>
</g>
<g>
</g>
<g>
</g>
</svg>
