<svg height="512pt" viewBox="0 0 512 512" width="512pt" xmlns="http://www.w3.org/2000/svg"><path d="m500 211.300781-57.402344-11.402343c-3.898437-12.597657-8.699218-24.597657-15-36.300782l31.804688-47.699218c3.898437-6 3.296875-13.800782-1.804688-18.898438l-42.597656-42.601562c-5.097656-5.097657-12.898438-5.699219-18.898438-1.800782l-47.699218 31.800782c-11.703125-6.296876-23.703125-11.097657-36.300782-15l-11.402343-57.398438c-1.5-6.902344-7.5-12-14.699219-12h-60c-7.199219 0-13.199219 5.097656-14.699219 12l-11.402343 57.398438c-12.597657 3.902343-24.597657 8.703124-36.300782 15l-47.699218-31.800782c-6-3.898437-13.800782-3.296875-18.898438 1.800782l-42.597656 42.601562c-5.101563 5.097656-5.703125 12.898438-1.804688 18.898438l31.804688 47.699218c-6.300782 11.703125-11.101563 23.699219-15 36.300782l-57.402344 11.402343c-6.902344 1.5-12 7.5-12 14.699219v60c0 7.199219 5.097656 13.199219 12 14.699219l57.402344 11.402343c3.898437 12.597657 8.699218 24.597657 15 36.296876l-31.804688 47.703124c-3.898437 6-3.296875 13.800782 1.804688 18.898438l42.597656 42.597656c4.800781 5.101563 12.898438 5.703125 18.898438 1.800782l47.699218-31.800782c11.703125 6.300782 23.703125 11.101563 36.300782 15l11.402343 57.402344c1.5 6.898438 7.5 12 14.699219 12h60c7.199219 0 13.199219-5.101562 14.699219-12l11.402343-57.402344c12.597657-3.898437 24.597657-8.699218 36.300782-15l47.699218 31.800782c6 3.902343 13.800782 3.300781 18.898438-1.800782l42.597656-42.597656c5.101563-5.097656 5.703125-12.898438 1.804688-18.898438l-31.804688-47.703124c6.300782-11.699219 11.101563-23.699219 15-36.296876l57.402344-11.402343c6.902344-1.5 12-7.5 12-14.699219v-60c0-7.199219-5.097656-13.199219-12-14.699219zm-244 149.699219c-57.898438 0-105-47.101562-105-105s47.101562-105 105-105 105 47.101562 105 105-47.101562 105-105 105zm0 0" fill="#697c86"/><path d="m512 226v60c0 7.199219-5.097656 13.199219-12 14.699219l-57.402344 11.402343c-3.898437 12.597657-8.699218 24.597657-15 36.296876l31.804688 47.703124c3.898437 6 3.296875 13.800782-1.804688 18.898438l-42.597656 42.597656c-5.097656 5.101563-12.898438 5.703125-18.898438 1.800782l-47.699218-31.800782c-11.703125 6.300782-23.703125 11.101563-36.300782 15l-11.402343 57.402344c-1.5 6.898438-7.5 12-14.699219 12h-30v-151c57.898438 0 105-47.101562 105-105s-47.101562-105-105-105v-151h30c7.199219 0 13.199219 5.097656 14.699219 12l11.402343 57.398438c12.597657 3.902343 24.597657 8.703124 36.300782 15l47.699218-31.800782c6-3.898437 13.800782-3.296875 18.898438 1.800782l42.597656 42.601562c5.101563 5.097656 5.703125 12.898438 1.804688 18.898438l-31.804688 47.699218c6.300782 11.703125 11.101563 23.699219 15 36.300782l57.402344 11.402343c6.902344 1.5 12 7.5 12 14.699219zm0 0" fill="#596c76"/><path d="m256 121c-74.398438 0-135 60.597656-135 135 0 74.398438 60.601562 135 135 135s135-60.601562 135-135c0-74.402344-60.601562-135-135-135zm0 195c-33 0-60-27-60-60s27-60 60-60 60 27 60 60-27 60-60 60zm0 0" fill="#465a61"/><path d="m391 256c0 74.398438-60.601562 135-135 135v-75c33 0 60-27 60-60s-27-60-60-60v-75c74.398438 0 135 60.597656 135 135zm0 0" fill="#3b4a51"/></svg>