<?xml version="1.0" encoding="iso-8859-1"?>
<!-- Generator: Adobe Illustrator 19.0.0, SVG Export Plug-In . SVG Version: 6.00 Build 0)  -->
<svg version="1.1" id="Capa_1" xmlns="http://www.w3.org/2000/svg" xmlns:xlink="http://www.w3.org/1999/xlink" x="0px" y="0px"
	 viewBox="0 0 512 512" style="enable-background:new 0 0 512 512;" xml:space="preserve">
<path style="fill:#17ACE8;" d="M481,226c0,37.2-12.9,72.9-30,105l-24.3,30H92.199L61,331c-17.1-32.1-30-67.8-30-105
	C31,101.8,131.8,0,256,0S481,101.8,481,226z"/>
<path style="fill:#1689FC;" d="M481,226c0,37.2-12.9,72.9-30,105l-24.3,30H256V0C380.2,0,481,101.8,481,226z"/>
<path style="fill:#E1E4FB;" d="M406,211c-24.901,0-45-20.101-45-45c0-8.401-6.599-15-15-15s-15,6.599-15,15
	c0,24.899-20.099,45-45,45c-8.401,0-15,6.599-15,15c0,8.399,6.599,15,15,15c24.901,0,45,20.099,45,45c0,8.399,6.599,15,15,15
	s15-6.601,15-15c0-24.901,20.099-45,45-45c8.401,0,15-6.601,15-15C421,217.599,414.401,211,406,211z"/>
<path style="fill:#FEA832;" d="M451,331v75c0,8.399-6.599,15-15,15H76c-8.401,0-15-6.601-15-15v-75H451z"/>
<circle style="fill:#C5C9F7;" cx="316" cy="106" r="15"/>
<g>
	<circle style="fill:#E1E4FB;" cx="226" cy="286" r="15"/>
	<circle style="fill:#E1E4FB;" cx="136" cy="226" r="15"/>
</g>
<path style="fill:#FE9923;" d="M451,331v75c0,8.399-6.599,15-15,15H256v-90H451z"/>
<path style="fill:#C5C9F7;" d="M421,226c0,8.399-6.599,15-15,15c-24.901,0-45,20.099-45,45c0,8.399-6.599,15-15,15V151
	c8.401,0,15,6.599,15,15c0,24.899,20.099,45,45,45C414.401,211,421,217.599,421,226z"/>
<path style="fill:#E1E4FB;" d="M256,121c-24.901,0-45-20.101-45-45c0-8.401-6.599-15-15-15s-15,6.599-15,15
	c0,24.899-20.099,45-45,45c-8.401,0-15,6.599-15,15c0,8.399,6.599,15,15,15c24.901,0,45,20.099,45,45c0,8.399,6.599,15,15,15
	s15-6.601,15-15c0-24.901,20.099-45,45-45c8.401,0,15-6.601,15-15C271,127.599,264.401,121,256,121z"/>
<path style="fill:#C5C9F7;" d="M271,136c0,8.399-6.599,15-15,15c-24.901,0-45,20.099-45,45c0,8.399-6.599,15-15,15V61
	c8.401,0,15,6.599,15,15c0,24.899,20.099,45,45,45C264.401,121,271,127.599,271,136z"/>
<path style="fill:#994C0F;" d="M436,391H76c-24.901,0-45,20.099-45,45v61c0,8.399,6.599,15,15,15h420c8.401,0,15-6.601,15-15v-61
	C481,411.099,460.901,391,436,391z"/>
<path style="fill:#713708;" d="M481,436v61c0,8.399-6.599,15-15,15H256V391h180C460.901,391,481,411.099,481,436z"/>
<g>
</g>
<g>
</g>
<g>
</g>
<g>
</g>
<g>
</g>
<g>
</g>
<g>
</g>
<g>
</g>
<g>
</g>
<g>
</g>
<g>
</g>
<g>
</g>
<g>
</g>
<g>
</g>
<g>
</g>
</svg>
