<?xml version="1.0" encoding="iso-8859-1"?>
<!-- Generator: Adobe Illustrator 19.0.0, SVG Export Plug-In . SVG Version: 6.00 Build 0)  -->
<svg version="1.1" id="Layer_1" xmlns="http://www.w3.org/2000/svg" xmlns:xlink="http://www.w3.org/1999/xlink" x="0px" y="0px"
	 viewBox="0 0 512 512" style="enable-background:new 0 0 512 512;" xml:space="preserve">
<path style="fill:#00D7DF;" d="M477.701,128c-2.009-3.48-4.918-6.439-8.518-8.518L267.637,3.119c-7.201-4.158-16.072-4.158-23.273,0
	L42.82,119.482c-3.6,2.079-6.509,5.039-8.518,8.518l221.699,128L477.701,128z"/>
<path style="fill:#5286FA;" d="M256.001,512c4.018,0,8.037-1.04,11.636-3.119l201.545-116.364
	c7.201-4.158,11.636-11.84,11.636-20.154V139.636c0-4.158-1.109-8.156-3.119-11.636L256.001,256V512z"/>
<path style="fill:#424EDE;" d="M244.364,508.881c3.6,2.079,7.618,3.119,11.636,3.119V256L34.3,128
	c-2.009,3.48-3.119,7.478-3.119,11.636v232.727c0,8.315,4.436,15.998,11.636,20.154L244.364,508.881z"/>
<g>
</g>
<g>
</g>
<g>
</g>
<g>
</g>
<g>
</g>
<g>
</g>
<g>
</g>
<g>
</g>
<g>
</g>
<g>
</g>
<g>
</g>
<g>
</g>
<g>
</g>
<g>
</g>
<g>
</g>
</svg>
