<?xml version="1.0" encoding="iso-8859-1"?>
<!-- Generator: Adobe Illustrator 19.0.0, SVG Export Plug-In . SVG Version: 6.00 Build 0)  -->
<svg version="1.1" id="Capa_1" xmlns="http://www.w3.org/2000/svg" xmlns:xlink="http://www.w3.org/1999/xlink" x="0px" y="0px"
	 viewBox="0 0 512 512" style="enable-background:new 0 0 512 512;" xml:space="preserve">
<path style="fill:#CAE8F9;" d="M446.621,227.401l-180-154.2c-2.703-2.401-6.302-3.6-9.902-3.6c-3.6,0-7.2,1.199-9.902,3.6
	l-181,154.2c-3.296,2.999-5.098,6.899-5.098,11.4V497c0,8.401,6.599,15,15,15h361c8.401,0,15-6.599,15-15V238.801
	C451.719,234.3,449.917,230.4,446.621,227.401z"/>
<path style="fill:#B7E0F6;" d="M451.719,238.801V497c0,8.401-6.599,15-15,15h-180V69.6c3.6,0,7.2,1.199,9.902,3.6l180,154.2
	C449.917,230.4,451.719,234.3,451.719,238.801z"/>
<path style="fill:#1689FC;" d="M331.719,330h-150c-8.401,0-15,6.599-15,15v167h180V345C346.719,336.599,340.12,330,331.719,330z"/>
<path style="fill:#136EF1;" d="M346.719,345v167h-90V330h75C340.12,330,346.719,336.599,346.719,345z"/>
<path style="fill:#A4D9F5;" d="M426.934,171.27l-60-51.606c-3.311-2.842-5.215-7.002-5.215-11.367V45c0-8.291,6.709-15,15-15h60
	c8.291,0,15,6.709,15,15v114.902C451.719,172.721,436.623,179.582,426.934,171.27z"/>
<path style="fill:#FD003A;" d="M496.118,190.8l-210-180c-8.4-7.2-18.9-10.8-29.399-10.8C246.22,0,235.72,3.6,227.32,10.8l-211,180
	c-45,38.701,13.799,107.1,58.799,68.401L256.72,104.4l180.9,154.8c8.101,6.899,18.6,10.199,28.799,10.199
	c12.898,0,25.8-5.099,34.501-15C517.117,235.201,515.019,207.001,496.118,190.8z"/>
<path style="fill:#E50027;" d="M500.919,254.399c-8.701,9.901-21.603,15-34.501,15c-10.199,0-20.698-3.3-28.799-10.199
	l-180.9-154.801V0c10.499,0,20.999,3.6,29.399,10.8l210,180C515.019,207.001,517.117,235.201,500.919,254.399z"/>
<path style="fill:#1DE8F1;" d="M301.719,180h-90c-8.401,0-15,6.599-15,15v90c0,8.401,6.599,15,15,15h90c8.401,0,15-6.599,15-15v-90
	C316.719,186.599,310.12,180,301.719,180z"/>
<circle style="fill:#B7E0F6;" cx="271.72" cy="405" r="15"/>
<path style="fill:#1BD9DE;" d="M301.719,300h-45V180h45c8.401,0,15,6.599,15,15v90C316.719,293.401,310.12,300,301.719,300z"/>
<g>
</g>
<g>
</g>
<g>
</g>
<g>
</g>
<g>
</g>
<g>
</g>
<g>
</g>
<g>
</g>
<g>
</g>
<g>
</g>
<g>
</g>
<g>
</g>
<g>
</g>
<g>
</g>
<g>
</g>
</svg>
