<?xml version="1.0" standalone="no"?><!-- Generator: Gravit.io --><svg xmlns="http://www.w3.org/2000/svg" xmlns:xlink="http://www.w3.org/1999/xlink" style="isolation:isolate" viewBox="-5 0 522 522" width="522" height="522"><defs><filter id="fmPfXggPLg2GFqWmm3yR6XHDTmN7y8LS" x="-5" y="0" width="522" height="522" filterUnits="userSpaceOnUse"><feGaussianBlur xmlns="http://www.w3.org/2000/svg" in="SourceGraphic" stdDeviation="6.440413594258542"/><feOffset xmlns="http://www.w3.org/2000/svg" dx="0" dy="5" result="pf_100_offsetBlur"/><feFlood xmlns="http://www.w3.org/2000/svg" flood-color="#000000" flood-opacity="0.35"/><feComposite xmlns="http://www.w3.org/2000/svg" in2="pf_100_offsetBlur" operator="in" result="pf_100_dropShadow"/><feBlend xmlns="http://www.w3.org/2000/svg" in="SourceGraphic" in2="pf_100_dropShadow" mode="normal"/></filter></defs><g filter="url(#fmPfXggPLg2GFqWmm3yR6XHDTmN7y8LS)"><radialGradient id="_rgradient_0" fx="0.7427385892116184" fy="0.20124481327800836" cx="0.5" cy="0.5" r="0.5" gradientTransform="matrix(592.357,0,5.751,707.378,-43.054,-97.689)" gradientUnits="userSpaceOnUse"><stop offset="1.7391304347826086%" stop-opacity="1" style="stop-color:rgb(127,221,137)"/><stop offset="98.69565217391305%" stop-opacity="1" style="stop-color:rgb(75,161,204)"/></radialGradient><linearGradient id="_lgradient_0" x1="0.5" y1="0" x2="0.49999999999999983" y2="1"><stop offset="0%" stop-opacity="1" style="stop-color:rgb(255,255,255)"/><stop offset="98.69565217391305%" stop-opacity="1" style="stop-color:rgb(234,234,234)"/></linearGradient><circle vector-effect="non-scaling-stroke" cx="255.99999999999997" cy="256" r="231" fill="url(#_rgradient_0)" stroke-width="20" stroke="url(#_lgradient_0)" stroke-linejoin="miter" stroke-linecap="square" stroke-miterlimit="3"/><clipPath id="_clipPath_lf3Oi51mNZUOtPSd9DqON3YDImnpLlu0"><circle vector-effect="non-scaling-stroke" cx="255.99999999999997" cy="256" r="231" fill="url(#_rgradient_0)" stroke-width="20" stroke="url(#_lgradient_0)" stroke-linejoin="miter" stroke-linecap="square" stroke-miterlimit="3"/></clipPath><g clip-path="url(#_clipPath_lf3Oi51mNZUOtPSd9DqON3YDImnpLlu0)"><path d=" M 106 6 L 206 6 L 206 106 L 106 106 L 106 6 Z  M 6 6 L 106 6 L 106 106 L 6 106 L 6 6 Z  M 106 106 L 206 106 L 206 206 L 106 206 L 106 106 Z  M 6 106 L 106 106 L 106 206 L 6 206 L 6 106 Z  M 306 6 L 406 6 L 406 106 L 306 106 L 306 6 Z  M 206 6 L 306 6 L 306 106 L 206 106 L 206 6 Z  M 306 106 L 406 106 L 406 206 L 306 206 L 306 106 Z  M 206 106 L 306 106 L 306 206 L 206 206 L 206 106 Z  M 106 206 L 206 206 L 206 306 L 106 306 L 106 206 Z  M 6 206 L 106 206 L 106 306 L 6 306 L 6 206 Z  M 106 306 L 206 306 L 206 406 L 106 406 L 106 306 Z  M 6 306 L 106 306 L 106 406 L 6 406 L 6 306 Z  M 306 206 L 406 206 L 406 306 L 306 306 L 306 206 Z  M 206 206 L 306 206 L 306 306 L 206 306 L 206 206 Z  M 306 306 L 406 306 L 406 406 L 306 406 L 306 306 Z  M 206 306 L 306 306 L 306 406 L 206 406 L 206 306 Z  M 206 6 L 306 6 L 306 106 L 206 106 L 206 6 Z  M 106 6 L 206 6 L 206 106 L 106 106 L 106 6 Z  M 206 106 L 306 106 L 306 206 L 206 206 L 206 106 Z  M 106 106 L 206 106 L 206 206 L 106 206 L 106 106 Z  M 406 6 L 506 6 L 506 106 L 406 106 L 406 6 Z  M 306 6 L 406 6 L 406 106 L 306 106 L 306 6 Z  M 406 106 L 506 106 L 506 206 L 406 206 L 406 106 Z  M 306 106 L 406 106 L 406 206 L 306 206 L 306 106 Z  M 206 206 L 306 206 L 306 306 L 206 306 L 206 206 Z  M 106 206 L 206 206 L 206 306 L 106 306 L 106 206 Z  M 206 306 L 306 306 L 306 406 L 206 406 L 206 306 Z  M 106 306 L 206 306 L 206 406 L 106 406 L 106 306 Z  M 406 206 L 506 206 L 506 306 L 406 306 L 406 206 Z  M 306 206 L 406 206 L 406 306 L 306 306 L 306 206 Z  M 406 306 L 506 306 L 506 406 L 406 406 L 406 306 Z  M 306 306 L 406 306 L 406 406 L 306 406 L 306 306 Z  M 106 106 L 206 106 L 206 206 L 106 206 L 106 106 Z  M 6 106 L 106 106 L 106 206 L 6 206 L 6 106 Z  M 106 206 L 206 206 L 206 306 L 106 306 L 106 206 Z  M 6 206 L 106 206 L 106 306 L 6 306 L 6 206 Z  M 306 106 L 406 106 L 406 206 L 306 206 L 306 106 Z  M 206 106 L 306 106 L 306 206 L 206 206 L 206 106 Z  M 306 206 L 406 206 L 406 306 L 306 306 L 306 206 Z  M 206 206 L 306 206 L 306 306 L 206 306 L 206 206 Z  M 106 306 L 206 306 L 206 406 L 106 406 L 106 306 Z  M 6 306 L 106 306 L 106 406 L 6 406 L 6 306 Z  M 106 406 L 206 406 L 206 506 L 106 506 L 106 406 Z  M 6 406 L 106 406 L 106 506 L 6 506 L 6 406 Z  M 306 306 L 406 306 L 406 406 L 306 406 L 306 306 Z  M 206 306 L 306 306 L 306 406 L 206 406 L 206 306 Z  M 306 406 L 406 406 L 406 506 L 306 506 L 306 406 Z  M 206 406 L 306 406 L 306 506 L 206 506 L 206 406 Z  M 206 106 L 306 106 L 306 206 L 206 206 L 206 106 Z  M 106 106 L 206 106 L 206 206 L 106 206 L 106 106 Z  M 206 206 L 306 206 L 306 306 L 206 306 L 206 206 Z  M 106 206 L 206 206 L 206 306 L 106 306 L 106 206 Z  M 406 106 L 506 106 L 506 206 L 406 206 L 406 106 Z  M 306 106 L 406 106 L 406 206 L 306 206 L 306 106 Z  M 406 206 L 506 206 L 506 306 L 406 306 L 406 206 Z  M 306 206 L 406 206 L 406 306 L 306 306 L 306 206 Z  M 206 306 L 306 306 L 306 406 L 206 406 L 206 306 Z  M 106 306 L 206 306 L 206 406 L 106 406 L 106 306 Z  M 206 406 L 306 406 L 306 506 L 206 506 L 206 406 Z  M 106 406 L 206 406 L 206 506 L 106 506 L 106 406 Z  M 406 306 L 506 306 L 506 406 L 406 406 L 406 306 Z  M 306 306 L 406 306 L 406 406 L 306 406 L 306 306 Z  M 406 406 L 506 406 L 506 506 L 406 506 L 406 406 Z  M 306 406 L 406 406 L 406 506 L 306 506 L 306 406 Z " fill-rule="evenodd" fill="none" vector-effect="non-scaling-stroke" stroke-width="2" stroke="rgb(255,255,255)" stroke-opacity="0.4" stroke-linejoin="miter" stroke-linecap="square" stroke-miterlimit="3"/><path d=" M 156 56 L 256 56 L 256 156 L 156 156 L 156 56 Z  M 56 56 L 156 56 L 156 156 L 56 156 L 56 56 Z  M 156 156 L 256 156 L 256 256 L 156 256 L 156 156 Z  M 56 156 L 156 156 L 156 256 L 56 256 L 56 156 Z  M 356 56 L 456 56 L 456 156 L 356 156 L 356 56 Z  M 256 56 L 356 56 L 356 156 L 256 156 L 256 56 Z  M 356 156 L 456 156 L 456 256 L 356 256 L 356 156 Z  M 256 156 L 356 156 L 356 256 L 256 256 L 256 156 Z  M 156 256 L 256 256 L 256 356 L 156 356 L 156 256 Z  M 56 256 L 156 256 L 156 356 L 56 356 L 56 256 Z  M 156 356 L 256 356 L 256 456 L 156 456 L 156 356 Z  M 56 356 L 156 356 L 156 456 L 56 456 L 56 356 Z  M 356 256 L 456 256 L 456 356 L 356 356 L 356 256 Z  M 256 256 L 356 256 L 356 356 L 256 356 L 256 256 Z  M 356 356 L 456 356 L 456 456 L 356 456 L 356 356 Z  M 256 356 L 356 356 L 356 456 L 256 456 L 256 356 Z " fill-rule="evenodd" fill="none" vector-effect="non-scaling-stroke" stroke-width="3" stroke="rgb(255,255,255)" stroke-opacity="0.8" stroke-linejoin="miter" stroke-linecap="square" stroke-miterlimit="3"/><defs><filter id="tB6g19PXXMIxStTzHEwMwHG6QEEM1JRu" x="-35.942" y="118.5" width="583.885" height="337" filterUnits="userSpaceOnUse"><feGaussianBlur xmlns="http://www.w3.org/2000/svg" in="SourceGraphic" stdDeviation="2.146804531419514"/><feOffset xmlns="http://www.w3.org/2000/svg" dx="0" dy="2" result="pf_100_offsetBlur"/><feFlood xmlns="http://www.w3.org/2000/svg" flood-color="#000000" flood-opacity="0.35"/><feComposite xmlns="http://www.w3.org/2000/svg" in2="pf_100_offsetBlur" operator="in" result="pf_100_dropShadow"/><feBlend xmlns="http://www.w3.org/2000/svg" in="SourceGraphic" in2="pf_100_dropShadow" mode="normal"/></filter></defs><g filter="url(#tB6g19PXXMIxStTzHEwMwHG6QEEM1JRu)"><linearGradient id="_lgradient_1" x1="0.5" y1="0" x2="0.49999999999999983" y2="1"><stop offset="0%" stop-opacity="1" style="stop-color:rgb(255,255,255)"/><stop offset="97.82608695652173%" stop-opacity="1" style="stop-color:rgb(221,221,221)"/></linearGradient><path d=" M 1.558 156 L 120.801 156 L 154.391 264.327 L 193.859 156 L 256 418 L 290.429 318.91 L 331.577 368.455 L 383.641 156 L 510.442 156" fill="none" vector-effect="non-scaling-stroke" stroke-width="25" stroke="url(#_lgradient_1)" stroke-linejoin="round" stroke-linecap="round" stroke-miterlimit="3"/></g></g></g></svg>