<svg height="512pt" viewBox="0 0 512 512" width="512pt" xmlns="http://www.w3.org/2000/svg"><path d="m305.5 166.800781-77.699219 77.699219c-3 2.699219-6.898437 4.199219-10.5 4.199219-3.898437 0-7.800781-1.5-10.800781-4.199219-5.699219-6-5.699219-15.601562 0-21.300781l77.699219-77.699219c5.703125-5.699219 15.300781-5.699219 21.304687 0 5.695313 6 5.695313 15.601562-.003906 21.300781zm0 0" fill="#465a61"/><path d="m305.5 166.800781-49.5 49.5v-42.601562l28.199219-28.199219c5.699219-5.699219 15.300781-5.699219 21.300781 0 5.699219 6 5.699219 15.601562 0 21.300781zm0 0" fill="#3b4a51"/><path d="m169.148438 256.582031c-2.253907 0-4.539063-.511719-6.695313-1.582031l-66.324219-33.164062c-7.414062-3.707032-10.417968-12.714844-6.710937-20.125 3.722656-7.398438 12.730469-10.417969 20.128906-6.710938l66.324219 33.164062c7.414062 3.707032 10.417968 12.714844 6.710937 20.125-2.636719 5.261719-7.925781 8.292969-13.433593 8.292969zm0 0" fill="#465a61"/><path d="m340.007812 131.996094c-4.570312 0-9.066406-2.0625-12.011718-6.003906-4.980469-6.621094-3.632813-16.027344 3.003906-20.992188l72.011719-53.992188c6.605469-4.980468 15.996093-3.664062 20.992187 3 4.980469 6.621094 3.632813 16.027344-3.003906 20.992188l-72.011719 53.992188c-2.695312 2.023437-5.84375 3.003906-8.980469 3.003906zm0 0" fill="#3b4a51"/><path d="m76 150c-24.902344 0-45 20.097656-45 45 0 24.898438 20.097656 45 45 45s45-20.101562 45-45c0-24.902344-20.097656-45-45-45zm0 0" fill="#697c86"/><path d="m196 210c-24.902344 0-45 20.097656-45 45 0 24.898438 20.097656 45 45 45s45-20.101562 45-45c0-24.902344-20.097656-45-45-45zm0 0" fill="#c6e2e7"/><path d="m316 90c-24.902344 0-45 20.097656-45 45 0 24.898438 20.097656 45 45 45s45-20.101562 45-45c0-24.902344-20.097656-45-45-45zm0 0" fill="#fdbf00"/><path d="m436 0c-24.902344 0-45 20.097656-45 45 0 24.898438 20.097656 45 45 45s45-20.101562 45-45c0-24.902344-20.097656-45-45-45zm0 0" fill="#e63950"/><path d="m481 165v325.398438h-90v-325.398438c0-8.402344 6.597656-15 15-15h60c8.402344 0 15 6.597656 15 15zm0 0" fill="#e63950"/><path d="m361 255v235.398438h-90v-235.398438c0-8.402344 6.597656-15 15-15h60c8.402344 0 15 6.597656 15 15zm0 0" fill="#fdbf00"/><path d="m241 375v115.398438h-90v-115.398438c0-8.402344 6.597656-15 15-15h60c8.402344 0 15 6.597656 15 15zm0 0" fill="#c6e2e7"/><path d="m121 315v175.398438h-90v-175.398438c0-8.402344 6.597656-15 15-15h60c8.402344 0 15 6.597656 15 15zm0 0" fill="#697c86"/><path d="m436 90v-90c24.902344 0 45 20.097656 45 45 0 24.898438-20.097656 45-45 45zm0 0" fill="#cc2e43"/><path d="m481 165v325.398438h-45v-340.398438h30c8.402344 0 15 6.597656 15 15zm0 0" fill="#cc2e43"/><path d="m316 180v-90c24.902344 0 45 20.097656 45 45 0 24.898438-20.097656 45-45 45zm0 0" fill="#ff9f00"/><path d="m361 255v235.398438h-45v-250.398438h30c8.402344 0 15 6.597656 15 15zm0 0" fill="#ff9f00"/><path d="m196 300v-90c24.902344 0 45 20.097656 45 45 0 24.898438-20.097656 45-45 45zm0 0" fill="#a8d3d8"/><path d="m241 375v115.398438h-45v-130.398438h30c8.402344 0 15 6.597656 15 15zm0 0" fill="#a8d3d8"/><path d="m76 240v-90c24.902344 0 45 20.097656 45 45 0 24.898438-20.097656 45-45 45zm0 0" fill="#596c76"/><path d="m121 315v175.398438h-45v-190.398438h30c8.402344 0 15 6.597656 15 15zm0 0" fill="#596c76"/><path d="m512 497c0 8.398438-6.597656 15-15 15h-482c-8.402344 0-15-6.601562-15-15 0-8.402344 6.597656-15 15-15h482c8.402344 0 15 6.597656 15 15zm0 0" fill="#465a61"/><path d="m512 497c0 8.398438-6.597656 15-15 15h-241v-30h241c8.402344 0 15 6.597656 15 15zm0 0" fill="#3b4a51"/></svg>