<?xml version="1.0" encoding="iso-8859-1"?>
<!-- Generator: Adobe Illustrator 19.0.0, SVG Export Plug-In . SVG Version: 6.00 Build 0)  -->
<svg version="1.1" id="Layer_1" xmlns="http://www.w3.org/2000/svg" xmlns:xlink="http://www.w3.org/1999/xlink" x="0px" y="0px"
	 viewBox="0 0 512 512" style="enable-background:new 0 0 512 512;" xml:space="preserve">
<path style="fill:#EFC27B;" d="M393.731,0H224.212c-56.123,0-102.967,40.49-112.855,93.793c-8.947-3.42-18.541-5.204-28.407-5.204
	c-21.225,0-41.179,8.266-56.188,23.274c-15.009,15.011-23.275,34.965-23.274,56.188v91.436C3.488,398.724,116.763,512,256,512
	s252.512-113.276,252.512-252.513l-0.004-144.709C508.509,51.49,457.019,0,393.731,0z"/>
<path style="fill:#ECB45C;" d="M224.212,0c-56.123,0-102.967,40.49-112.855,93.793c-8.947-3.42-18.541-5.204-28.407-5.204
	c-21.225,0-41.179,8.266-56.188,23.274c-15.009,15.009-23.275,34.965-23.274,56.188v91.436C3.488,398.724,116.763,512,256,512l0,0V0
	H224.212z"/>
<path style="fill:#FFB655;" d="M508.509,114.778C508.509,51.49,457.019,0,393.731,0H224.212c-56.123,0-102.967,40.49-112.855,93.793
	c-8.947-3.42-18.541-5.204-28.407-5.204c-21.225,0-41.179,8.266-56.188,23.274c-15.009,15.009-23.275,34.965-23.274,56.188v91.436
	C3.488,398.724,116.763,512,256,512s252.512-113.276,252.512-252.513L508.509,114.778z M256,459.025
	c-110.027,0-199.538-89.511-199.538-199.538v-91.44c0-7.072,2.755-13.722,7.757-18.725c5.004-5.003,11.656-7.759,18.732-7.759
	c7.074,0,13.724,2.755,18.727,7.757s7.759,11.654,7.759,18.73v0.002v105.949c0,14.628,11.859,26.487,26.487,26.487
	s26.487-11.859,26.487-26.487V168.053c0,0,0,0,0-0.002v-53.273c0-0.016-0.002-0.03-0.002-0.046
	c0.025-34.057,27.739-61.758,61.802-61.758h169.519c34.079,0,61.804,27.725,61.804,61.804l0.004,144.709
	C455.538,369.514,366.027,459.025,256,459.025z"/>
<path style="fill:#EE8700;" d="M56.462,259.487v-91.44c0-7.072,2.755-13.722,7.757-18.725c5.004-5.003,11.656-7.759,18.732-7.759
	c7.074,0,13.724,2.755,18.727,7.757s7.759,11.654,7.759,18.73v0.002v105.949c0,14.628,11.859,26.487,26.487,26.487
	s26.487-11.859,26.487-26.487V168.053c0,0,0,0,0-0.002v-53.273c0-0.016-0.002-0.03-0.002-0.046
	c0.025-34.057,27.739-61.758,61.802-61.758h31.751V0h-31.751c-56.123,0-102.967,40.49-112.855,93.793
	c-8.947-3.42-18.541-5.204-28.407-5.204c-21.225,0-41.179,8.266-56.188,23.274c-15.009,15.009-23.275,34.965-23.274,56.188v91.436
	c0,139.224,113.256,252.493,252.475,252.513v-52.975C145.954,459.006,56.462,369.502,56.462,259.487z"/>
<g>
</g>
<g>
</g>
<g>
</g>
<g>
</g>
<g>
</g>
<g>
</g>
<g>
</g>
<g>
</g>
<g>
</g>
<g>
</g>
<g>
</g>
<g>
</g>
<g>
</g>
<g>
</g>
<g>
</g>
</svg>
