<svg height="512pt" viewBox="0 0 512 512.00038" width="512pt" xmlns="http://www.w3.org/2000/svg"><path d="m484.875 246.34375-30.195312-176.765625c-.539063-3.136719-2.03125-5.929687-4.179688-8.082031-2.144531-2.140625-4.941406-3.640625-8.082031-4.179688l-176.765625-30.195312c-14.53125-2.480469-29.445313 2.265625-39.875 12.695312l-200.722656 200.71875c-33.40625 33.40625-33.40625 87.757813 0 121.164063l125.246093 125.246093c33.40625 33.40625 87.757813 33.40625 121.167969 0l200.71875-200.71875c10.429688-10.433593 15.175781-25.34375 12.6875-39.882812zm-95.65625-32.285156c-25.164062 25.164062-66.109375 25.164062-91.277344-.003906-25.160156-25.164063-25.160156-66.105469 0-91.269532 25.167969-25.167968 66.113282-25.167968 91.277344-.003906 25.167969 25.164062 25.167969 66.109375 0 91.277344zm0 0" fill="#ff6464"/><path d="m484.875 246.34375-30.195312-176.765625c-.539063-3.136719-2.03125-5.929687-4.179688-8.082031l-61.28125 61.28125c25.167969 25.167968 25.167969 66.113281 0 91.28125-25.164062 25.160156-66.109375 25.160156-91.277344-.007813l-210.265625 210.269531 62.625 62.625c33.40625 33.40625 87.757813 33.40625 121.167969 0l200.71875-200.71875c10.429688-10.433593 15.175781-25.34375 12.6875-39.882812zm0 0" fill="#f72828"/><path d="m507.601562 4.394531c-5.851562-5.855469-15.351562-5.863281-21.214843 0l-151.289063 151.289063c-5.855468 5.855468-5.855468 15.359375 0 21.214844 5.863282 5.863281 15.359375 5.855468 21.214844 0l151.289062-151.289063c5.863282-5.863281 5.863282-15.351563 0-21.214844zm0 0" fill="#fede81"/><path d="m507.601562 4.394531-172.503906 172.503907c5.863282 5.863281 15.359375 5.855468 21.214844 0l151.289062-151.289063c5.863282-5.863281 5.863282-15.351563 0-21.214844zm0 0" fill="#feaf45"/></svg>