<?xml version="1.0" standalone="no"?><!-- Generator: Gravit.io --><svg xmlns="http://www.w3.org/2000/svg" xmlns:xlink="http://www.w3.org/1999/xlink" style="isolation:isolate" viewBox="0 0 512 512" width="512" height="512"><defs><clipPath id="_clipPath_wFVjVvgD2kBnFhH1xSx0xlvg7d6XSxZi"><rect width="512" height="512"/></clipPath></defs><g clip-path="url(#_clipPath_wFVjVvgD2kBnFhH1xSx0xlvg7d6XSxZi)"><g><path d=" M 296.421 0 C 303.832 0 309.895 6.4 309.895 14.222 L 309.895 497.778 C 309.895 505.6 303.832 512 296.421 512 C 289.011 512 282.947 505.6 282.947 497.778 L 282.947 14.222 C 282.947 6.4 289.011 0 296.421 0 Z  M 215.579 0 C 222.989 0 229.053 6.4 229.053 14.222 L 229.053 497.778 C 229.053 505.6 222.989 512 215.579 512 C 208.168 512 202.105 505.6 202.105 497.778 L 202.105 14.222 C 202.105 6.4 208.168 0 215.579 0 Z " fill="rgb(71,136,199)"/><path d=" M 306.472 256 L 424.421 143.943 L 424.421 220.444 L 505.263 220.444 L 505.263 291.556 L 424.421 291.556 L 424.421 368.057 L 306.472 256 Z " fill="rgb(223,240,254)"/><path d=" M 417.684 159.943 L 417.684 227.556 L 498.526 227.556 L 498.526 284.444 L 417.684 284.444 L 417.684 352.057 L 316.578 256 L 417.684 159.943 Z  M 431.158 128 L 296.421 256 L 431.158 384 L 431.158 298.667 L 512 298.667 L 512 213.333 L 431.158 213.333 L 431.158 128 Z " fill="rgb(71,136,199)"/><path d=" M 87.579 291.556 L 6.737 291.556 L 6.737 220.444 L 87.579 220.444 L 87.579 143.943 L 205.528 256 L 87.579 368.057 L 87.579 291.556 Z " fill="rgb(223,240,254)"/><path d=" M 94.316 159.943 L 195.422 256 L 94.316 352.057 L 94.316 284.444 L 13.474 284.444 L 13.474 227.556 L 94.316 227.556 L 94.316 159.943 Z  M 80.842 128 L 80.842 213.333 L 0 213.333 L 0 298.667 L 80.842 298.667 L 80.842 384 L 215.579 256 L 80.842 128 Z " fill="rgb(71,136,199)"/></g><g><path d=" M 412 509.368 C 358.311 509.368 314.632 465.689 314.632 412 C 314.632 358.311 358.311 314.632 412 314.632 C 465.689 314.632 509.368 358.311 509.368 412 C 509.368 465.689 465.689 509.368 412 509.368 Z " fill="rgb(247,143,143)"/><path d=" M 412 317.263 C 464.237 317.263 506.737 359.763 506.737 412 C 506.737 464.237 464.237 506.737 412 506.737 C 359.763 506.737 317.263 464.237 317.263 412 C 317.263 359.763 359.763 317.263 412 317.263 Z  M 412 312 C 356.774 312 312 356.774 312 412 C 312 467.226 356.774 512 412 512 C 467.226 512 512 467.226 512 412 C 512 356.774 467.226 312 412 312 Z " fill="rgb(199,67,67)"/><rect x="359.368" y="401.474" width="105.263" height="21.053" transform="matrix(1,0,0,1,0,0)" fill="rgb(255,255,255)"/></g></g></svg>