<?xml version="1.0" encoding="iso-8859-1"?>
<!-- Generator: Adobe Illustrator 19.0.0, SVG Export Plug-In . SVG Version: 6.00 Build 0)  -->
<svg version="1.1" id="Capa_1" xmlns="http://www.w3.org/2000/svg" xmlns:xlink="http://www.w3.org/1999/xlink" x="0px" y="0px"
	 viewBox="0 0 512 512" style="enable-background:new 0 0 512 512;" xml:space="preserve">
<linearGradient id="SVGID_1_" gradientUnits="userSpaceOnUse" x1="0" y1="258" x2="512" y2="258" gradientTransform="matrix(1 0 0 -1 0 514)">
	<stop  offset="0" style="stop-color:#80D8FF"/>
	<stop  offset="0.16" style="stop-color:#88D1FF"/>
	<stop  offset="0.413" style="stop-color:#9FBEFE"/>
	<stop  offset="0.725" style="stop-color:#C4A0FD"/>
	<stop  offset="1" style="stop-color:#EA80FC"/>
</linearGradient>
<path style="fill:url(#SVGID_1_);" d="M512,424.571c0,11.046-8.954,20-20,20h-47.429V492c0,11.046-8.954,20-20,20s-20-8.954-20-20
	v-47.429c-23.622,0-90.636,0-114.857,0c-11.046,0-20-8.954-20-20s8.954-20,20-20c24.183,0,91.229,0,114.857,0
	c0-23.622,0-90.636,0-114.857c0-11.046,8.954-20,20-20s20,8.954,20,20c0,24.183,0,91.229,0,114.857H492
	C503.046,404.571,512,413.525,512,424.571z M154.857,0H20C8.954,0,0,8.954,0,20v134.857c0,11.046,8.954,20,20,20s20-8.954,20-20V40
	h114.857c11.046,0,20-8.954,20-20S165.903,0,154.857,0z M289.714,40h114.857v114.857c0,11.046,8.954,20,20,20s20-8.954,20-20V20
	c0-11.046-8.954-20-20-20H289.714c-11.046,0-20,8.954-20,20S278.668,40,289.714,40z M154.857,404.571H40V289.714
	c0-11.046-8.954-20-20-20s-20,8.954-20,20v134.857c0,11.046,8.954,20,20,20h134.857c11.046,0,20-8.954,20-20
	S165.903,404.571,154.857,404.571z M20,252.286c11.046,0,20-8.954,20-20v-20c0-11.046-8.954-20-20-20s-20,8.954-20,20v20
	C0,243.332,8.954,252.286,20,252.286z M424.571,192.286c-11.046,0-20,8.954-20,20v20c0,11.046,8.954,20,20,20s20-8.954,20-20v-20
	C444.571,201.24,435.617,192.286,424.571,192.286z M232.286,0h-20c-11.046,0-20,8.954-20,20s8.954,20,20,20h20
	c11.046,0,20-8.954,20-20S243.332,0,232.286,0z M232.286,404.571h-20c-11.046,0-20,8.954-20,20s8.954,20,20,20h20
	c11.046,0,20-8.954,20-20S243.332,404.571,232.286,404.571z"/>
<g>
</g>
<g>
</g>
<g>
</g>
<g>
</g>
<g>
</g>
<g>
</g>
<g>
</g>
<g>
</g>
<g>
</g>
<g>
</g>
<g>
</g>
<g>
</g>
<g>
</g>
<g>
</g>
<g>
</g>
</svg>
