<?xml version="1.0" encoding="iso-8859-1"?>
<!-- Generator: Adobe Illustrator 19.0.0, SVG Export Plug-In . SVG Version: 6.00 Build 0)  -->
<svg version="1.1" id="Layer_1" xmlns="http://www.w3.org/2000/svg" xmlns:xlink="http://www.w3.org/1999/xlink" x="0px" y="0px"
	 viewBox="0 0 447.517 447.517" style="enable-background:new 0 0 447.517 447.517;" xml:space="preserve">
<g id="XMLID_918_">
	<path id="XMLID_1960_" style="fill:#1A6FB0;" d="M430.433,430.476c10.99-10.99,17.042-25.601,17.042-41.143
		s-6.052-30.154-17.042-41.143l-97.785-97.785l-82.285,82.285l97.785,97.785c10.99,10.99,25.601,17.042,41.143,17.042
		C404.833,447.518,419.444,441.466,430.433,430.476z"/>
	<path id="XMLID_1956_" style="fill:#165C92;" d="M291.506,291.548l138.928,138.928c10.99-10.99,17.042-25.601,17.042-41.143
		s-6.052-30.154-17.042-41.143l-97.785-97.785L291.506,291.548z"/>
	<path id="XMLID_1955_" style="fill:#ACABB1;" d="M300.43,51.553C267.186,18.309,222.986,0,175.971,0S84.756,18.309,51.511,51.553
		c-68.627,68.627-68.627,180.293,0,248.92c33.244,33.245,77.445,51.553,124.46,51.553s91.216-18.309,124.46-51.553
		c33.245-33.244,51.554-77.445,51.554-124.46C351.984,128.999,333.676,84.798,300.43,51.553z"/>
	<g id="XMLID_138_">
		<path id="XMLID_1951_" style="fill:#96C8EF;" d="M175.971,312.784c-36.533,0-70.879-14.227-96.712-40.059
			c-53.327-53.327-53.327-140.096,0-193.422c25.833-25.833,60.178-40.06,96.712-40.06c36.533,0,70.878,14.227,96.711,40.06
			c53.326,53.326,53.326,140.095,0,193.422C246.849,298.557,212.504,312.784,175.971,312.784z"/>
	</g>
	<path id="XMLID_925_" style="fill:#78B9EB;" d="M99.257,102.638c25.832-25.833,60.178-40.06,96.711-40.06
		c34.918,0,67.832,13.005,93.231,36.711c-4.779-7.047-10.278-13.749-16.517-19.988c-25.833-25.833-60.179-40.06-96.711-40.06
		c-36.533,0-70.879,14.227-96.711,40.06c-53.327,53.326-53.327,140.095,0,193.422c1.142,1.142,2.306,2.253,3.481,3.349
		C46.67,222.884,52.169,149.726,99.257,102.638z"/>
	<path id="XMLID_1946_" style="fill:#898890;" d="M175.971,0c-47.015,0-91.216,18.309-124.46,51.553l0,0l248.92,248.92
		c33.245-33.244,51.553-77.445,51.553-124.46s-18.309-91.216-51.554-124.46C267.186,18.309,222.986,0,175.971,0z"/>
	<path id="XMLID_1945_" style="fill:#78B9EB;" d="M175.971,39.243c-36.533,0-70.879,14.226-96.711,40.059l193.423,193.423l0,0
		c53.326-53.327,53.326-140.096,0-193.422C246.849,53.469,212.504,39.243,175.971,39.243z"/>
</g>
<g>
</g>
<g>
</g>
<g>
</g>
<g>
</g>
<g>
</g>
<g>
</g>
<g>
</g>
<g>
</g>
<g>
</g>
<g>
</g>
<g>
</g>
<g>
</g>
<g>
</g>
<g>
</g>
<g>
</g>
</svg>
